<svg width="12" height="12" viewBox="0 0 12 12" fill="none" xmlns="http://www.w3.org/2000/svg">
<path fill-rule="evenodd" clip-rule="evenodd" d="M6 11.5C9.03757 11.5 11.5 9.03757 11.5 6C11.5 2.96243 9.03757 0.5 6 0.5C2.96243 0.5 0.5 2.96243 0.5 6C0.5 9.03757 2.96243 11.5 6 11.5ZM6 2.64062C6.33655 2.64062 6.60938 2.91345 6.60938 3.25V6.45833C6.60938 6.79488 6.33655 7.06771 6 7.06771C5.66345 7.06771 5.39062 6.79488 5.39062 6.45833V3.25C5.39062 2.91345 5.66345 2.64062 6 2.64062ZM6.6875 8.52083C6.6875 8.90053 6.3797 9.20833 6 9.20833C5.6203 9.20833 5.3125 8.90053 5.3125 8.52083C5.3125 8.14114 5.6203 7.83333 6 7.83333C6.3797 7.83333 6.6875 8.14114 6.6875 8.52083Z" fill="#F32626"/>
</svg>
