<svg width="24" height="24" viewBox="0 0 24 24" fill="none" xmlns="http://www.w3.org/2000/svg">
<path fill-rule="evenodd" clip-rule="evenodd" d="M7.66475 7.66475C7.88442 7.44508 8.24058 7.44508 8.46025 7.66475L12 11.2045L15.5398 7.66475C15.7594 7.44508 16.1156 7.44508 16.3352 7.66475C16.5549 7.88442 16.5549 8.24058 16.3352 8.46025L12.7955 12L16.3352 15.5398C16.5549 15.7594 16.5549 16.1156 16.3352 16.3352C16.1156 16.5549 15.7594 16.5549 15.5398 16.3352L12 12.7955L8.46025 16.3352C8.24058 16.5549 7.88442 16.5549 7.66475 16.3352C7.44508 16.1156 7.44508 15.7594 7.66475 15.5398L11.2045 12L7.66475 8.46025C7.44508 8.24058 7.44508 7.88442 7.66475 7.66475Z" fill="#ABB3B9"/>
<rect x="0.5" y="0.5" width="23" height="23" rx="3.5" stroke="#DBE2E8"/>
</svg>
