<svg width="16" height="16" viewBox="0 0 16 16" fill="none" xmlns="http://www.w3.org/2000/svg">
<path fill-rule="evenodd" clip-rule="evenodd" d="M8.81165 2.58943C8.81165 2.1412 8.44829 1.77783 8.00005 1.77783C7.55182 1.77783 7.18846 2.1412 7.18846 2.58943V7.18846H2.58943C2.1412 7.18846 1.77783 7.55182 1.77783 8.00005C1.77783 8.44829 2.1412 8.81165 2.58943 8.81165H7.18846V13.4107C7.18846 13.8589 7.55182 14.2223 8.00005 14.2223C8.44829 14.2223 8.81165 13.8589 8.81165 13.4107V8.81165H13.4107C13.8589 8.81165 14.2223 8.44829 14.2223 8.00005C14.2223 7.55182 13.8589 7.18846 13.4107 7.18846H8.81165V2.58943Z" fill="#5933C6"/>
</svg>
