<svg width="16" height="16" viewBox="0 0 16 16" fill="none" xmlns="http://www.w3.org/2000/svg">
<path fill-rule="evenodd" clip-rule="evenodd" d="M11.3703 2.73504H12.8148C13.0701 2.73529 13.3149 2.83622 13.4954 3.01569C13.6759 3.19516 13.7775 3.4385 13.7777 3.6923V13.265C13.7775 13.5188 13.6759 13.7621 13.4954 13.9416C13.3149 14.121 13.0701 14.222 12.8148 14.2222H3.18513C2.92981 14.222 2.68503 14.121 2.50449 13.9416C2.32396 13.7621 2.22242 13.5188 2.22217 13.265V3.6923C2.22242 3.4385 2.32396 3.19516 2.50449 3.01569C2.68503 2.83622 2.92981 2.73529 3.18513 2.73504H4.62958V2.2564C4.62958 2.12946 4.6803 2.00772 4.7706 1.91796C4.86089 1.8282 4.98336 1.77777 5.11106 1.77777C5.23875 1.77777 5.36122 1.8282 5.45152 1.91796C5.54181 2.00772 5.59254 2.12946 5.59254 2.2564V2.73504H10.4074V2.2564C10.4074 2.12946 10.4581 2.00772 10.5484 1.91796C10.6387 1.8282 10.7611 1.77777 10.8888 1.77777C11.0165 1.77777 11.139 1.8282 11.2293 1.91796C11.3196 2.00772 11.3703 2.12946 11.3703 2.2564V2.73504ZM3.18513 5.60683H12.8148V3.6923H11.3703V4.17093C11.3703 4.29787 11.3196 4.41962 11.2293 4.50938C11.139 4.59914 11.0165 4.64957 10.8888 4.64957C10.7611 4.64957 10.6387 4.59914 10.5484 4.50938C10.4581 4.41962 10.4074 4.29787 10.4074 4.17093V3.6923H5.59254V4.17093C5.59254 4.29787 5.54181 4.41962 5.45152 4.50938C5.36122 4.59914 5.23875 4.64957 5.11106 4.64957C4.98336 4.64957 4.86089 4.59914 4.7706 4.50938C4.6803 4.41962 4.62958 4.29787 4.62958 4.17093V3.6923H3.18513V5.60683ZM4.88883 7.1111C4.64337 7.1111 4.44439 7.31009 4.44439 7.55555C4.44439 7.80101 4.64337 7.99999 4.88883 7.99999H11.1111C11.3565 7.99999 11.5555 7.80101 11.5555 7.55555C11.5555 7.31009 11.3565 7.1111 11.1111 7.1111H4.88883Z" fill="#CAD1D7"/>
</svg>
