<svg width="16" height="16" viewBox="0 0 16 16" fill="none" xmlns="http://www.w3.org/2000/svg">
<path d="M7.64074 9.09869C7.64239 9.1003 7.64422 9.10167 7.64589 9.10325C7.65618 9.11306 7.66676 9.12263 7.67785 9.13156C7.68405 9.13655 7.69063 9.14092 7.69701 9.1456C7.7039 9.15064 7.71065 9.15587 7.71782 9.16058C7.72519 9.16544 7.73288 9.16963 7.74048 9.17407C7.74711 9.17796 7.75359 9.18203 7.76044 9.18561C7.76807 9.18962 7.77594 9.19303 7.78373 9.19661C7.79098 9.19998 7.79811 9.20351 7.80552 9.20655C7.81302 9.20958 7.82071 9.21204 7.82834 9.21472C7.83634 9.21754 7.84427 9.22055 7.85246 9.22298C7.86005 9.22523 7.86777 9.2269 7.87546 9.22879C7.88383 9.23085 7.89214 9.23316 7.90067 9.23483C7.90953 9.23653 7.91846 9.23757 7.92736 9.23881C7.93486 9.23988 7.94221 9.24124 7.94977 9.24197C7.96645 9.24358 7.98316 9.24446 7.9999 9.24446C8.01664 9.24446 8.03335 9.24358 8.05003 9.24197C8.0576 9.24124 8.06494 9.23988 8.07245 9.23881C8.08134 9.23757 8.09027 9.23653 8.09914 9.23483C8.10766 9.23316 8.11597 9.23085 8.12434 9.22879C8.13203 9.2269 8.13975 9.22523 8.14735 9.22298C8.15553 9.22055 8.16347 9.21754 8.17147 9.21472C8.17909 9.21204 8.18678 9.20958 8.19429 9.20655C8.20169 9.20351 8.20882 9.19998 8.21608 9.19661C8.22386 9.19303 8.23174 9.18962 8.23936 9.18561C8.24621 9.18203 8.2527 9.17796 8.25933 9.17407C8.26692 9.16963 8.27461 9.16544 8.28199 9.16058C8.28915 9.15587 8.29591 9.15064 8.30279 9.1456C8.30918 9.14092 8.31575 9.13655 8.32195 9.13156C8.33327 9.12245 8.34402 9.11276 8.3545 9.10273C8.35596 9.1013 8.3576 9.10012 8.35906 9.09869L11.4067 6.11201C11.4538 6.06579 11.4913 6.01092 11.5168 5.95052C11.5423 5.89013 11.5555 5.8254 11.5555 5.76003C11.5555 5.69466 11.5423 5.62993 11.5168 5.56953C11.4913 5.50913 11.4539 5.45426 11.4067 5.40803C11.3595 5.3618 11.3036 5.32513 11.2419 5.30012C11.1803 5.2751 11.1142 5.26222 11.0475 5.26222C10.9808 5.26221 10.9148 5.27509 10.8532 5.3001C10.7915 5.32511 10.7355 5.36178 10.6884 5.408L8.50784 7.54495V2.27555C8.50784 2.14353 8.45433 2.01692 8.35907 1.92357C8.26381 1.83022 8.13462 1.77777 7.9999 1.77777C7.86519 1.77777 7.73599 1.83022 7.64074 1.92357C7.54548 2.01692 7.49197 2.14353 7.49197 2.27555V7.54495L5.31144 5.408C5.26427 5.36178 5.20828 5.32511 5.14665 5.3001C5.08502 5.27509 5.01897 5.26221 4.95226 5.26222C4.88556 5.26222 4.81951 5.2751 4.75788 5.30012C4.69625 5.32513 4.64026 5.3618 4.5931 5.40803C4.54593 5.45426 4.50852 5.50913 4.48299 5.56953C4.45747 5.62993 4.44433 5.69466 4.44434 5.76003C4.44434 5.8254 4.45748 5.89013 4.48301 5.95052C4.50854 6.01092 4.54596 6.06579 4.59313 6.11201L7.64074 9.09869Z" fill="#757F99"/>
<path d="M14.0953 8.24886H10.663L9.07753 9.80259C8.79176 10.0826 8.40417 10.24 8.00003 10.24C7.59589 10.24 7.2083 10.0826 6.92252 9.80259L5.33708 8.24886H1.90479C1.63546 8.24916 1.37724 8.35414 1.1868 8.54078C0.996352 8.72742 0.889224 8.98047 0.888916 9.24441V13.2267C0.889224 13.4906 0.996352 13.7436 1.1868 13.9303C1.37724 14.1169 1.63546 14.2219 1.90479 14.2222H14.0953C14.3646 14.2219 14.6228 14.1169 14.8133 13.9303C15.0037 13.7436 15.1108 13.4906 15.1111 13.2267V9.24441C15.1108 8.98047 15.0037 8.72742 14.8133 8.54078C14.6228 8.35414 14.3646 8.24916 14.0953 8.24886ZM11.8096 11.9822C11.6589 11.9822 11.5116 11.9384 11.3863 11.8564C11.261 11.7743 11.1633 11.6577 11.1057 11.5213C11.048 11.3848 11.0329 11.2347 11.0623 11.0899C11.0917 10.945 11.1643 10.812 11.2708 10.7076C11.3774 10.6031 11.5131 10.532 11.6609 10.5032C11.8087 10.4744 11.9619 10.4892 12.1012 10.5457C12.2404 10.6022 12.3594 10.6979 12.4431 10.8207C12.5268 10.9435 12.5715 11.0879 12.5715 11.2355C12.5715 11.4336 12.4912 11.6235 12.3483 11.7635C12.2054 11.9035 12.0117 11.9822 11.8096 11.9822Z" fill="#757F99"/>
</svg>
