<svg width="14" height="14" viewBox="0 0 14 14" fill="none" xmlns="http://www.w3.org/2000/svg">
<mask id="path-1-inside-1_4094_266769" fill="white">
<path d="M13.608 2.86231L12.4969 0.640083C12.4508 0.547807 12.3799 0.470203 12.2921 0.415967C12.2043 0.36173 12.1032 0.333004 12 0.333008H2.00004C1.89687 0.333004 1.79574 0.36173 1.70798 0.415967C1.62021 0.470203 1.54929 0.547807 1.50315 0.640083L0.392036 2.86231C0.353455 2.93945 0.333371 3.02453 0.333374 3.11079V12.5552C0.333711 12.8498 0.450882 13.1322 0.659183 13.3405C0.867484 13.5488 1.1499 13.666 1.44449 13.6663H12.5556C12.8502 13.666 13.1326 13.5488 13.3409 13.3405C13.5492 13.1322 13.6664 12.8498 13.6667 12.5552V3.11079C13.6667 3.02453 13.6466 2.93945 13.608 2.86231ZM9.74991 8.92438L7.3929 11.2814C7.38914 11.2852 7.38497 11.2884 7.38114 11.2921C7.37188 11.3008 7.36266 11.3096 7.35279 11.3177C7.34814 11.3215 7.34316 11.3248 7.33841 11.3285C7.32875 11.3359 7.31919 11.3434 7.30905 11.3502C7.30515 11.3528 7.30098 11.355 7.29701 11.3575C7.28565 11.3647 7.27423 11.3719 7.26232 11.3783C7.25937 11.3799 7.25629 11.3811 7.2533 11.3826C7.24015 11.3894 7.22682 11.3959 7.21306 11.4016C7.21109 11.4025 7.20899 11.4031 7.20699 11.4039C7.19224 11.4098 7.17732 11.4153 7.16195 11.42C7.15992 11.4206 7.15782 11.421 7.15578 11.4216C7.14052 11.426 7.12513 11.4301 7.1094 11.4332C7.10485 11.4342 7.10017 11.4345 7.09559 11.4353C7.08234 11.4376 7.06908 11.44 7.05551 11.4413C7.01863 11.4451 6.98145 11.4451 6.94457 11.4413C6.931 11.44 6.91774 11.4376 6.90449 11.4353C6.89991 11.4345 6.89523 11.4342 6.89069 11.4332C6.87495 11.4301 6.85956 11.426 6.8443 11.4216C6.84226 11.421 6.84016 11.4206 6.83813 11.42C6.82273 11.4153 6.80771 11.4097 6.79293 11.4038C6.79099 11.403 6.78896 11.4024 6.78702 11.4016C6.77326 11.3959 6.75993 11.3894 6.74674 11.3826C6.74379 11.3811 6.7407 11.3799 6.73775 11.3783C6.72585 11.3719 6.71442 11.3647 6.70306 11.3575C6.6991 11.355 6.69493 11.3528 6.69103 11.3502C6.68089 11.3434 6.67133 11.3359 6.66166 11.3285C6.65692 11.3248 6.65193 11.3215 6.64729 11.3177C6.63769 11.3098 6.62874 11.3012 6.61969 11.2928C6.61558 11.2889 6.61118 11.2854 6.60717 11.2814L4.25017 8.92438C4.14598 8.82019 4.08744 8.67888 4.08744 8.53153C4.08743 8.38418 4.14596 8.24287 4.25015 8.13867C4.35434 8.03448 4.49566 7.97594 4.64301 7.97594C4.79035 7.97594 4.93167 8.03447 5.03586 8.13866L6.44448 9.54731V5.33301C6.44448 5.18567 6.50302 5.04436 6.6072 4.94017C6.71139 4.83598 6.8527 4.77745 7.00004 4.77745C7.14738 4.77745 7.28869 4.83598 7.39288 4.94017C7.49706 5.04436 7.5556 5.18567 7.5556 5.33301V9.54731L8.96422 8.13866C9.01581 8.08707 9.07706 8.04614 9.14446 8.01822C9.21187 7.9903 9.28412 7.97594 9.35708 7.97594C9.43004 7.97594 9.50228 7.99031 9.56969 8.01823C9.63709 8.04615 9.69834 8.08708 9.74993 8.13867C9.80152 8.19026 9.84244 8.25151 9.87036 8.31892C9.89828 8.38632 9.91265 8.45857 9.91265 8.53153C9.91265 8.60449 9.89827 8.67673 9.87035 8.74414C9.84243 8.81155 9.80151 8.87279 9.74991 8.92438L9.74991 8.92438ZM1.78784 2.55523L2.3434 1.44412H11.6567L12.2122 2.55523H1.78784Z"/>
</mask>
<path d="M13.608 2.86231L12.4969 0.640083C12.4508 0.547807 12.3799 0.470203 12.2921 0.415967C12.2043 0.36173 12.1032 0.333004 12 0.333008H2.00004C1.89687 0.333004 1.79574 0.36173 1.70798 0.415967C1.62021 0.470203 1.54929 0.547807 1.50315 0.640083L0.392036 2.86231C0.353455 2.93945 0.333371 3.02453 0.333374 3.11079V12.5552C0.333711 12.8498 0.450882 13.1322 0.659183 13.3405C0.867484 13.5488 1.1499 13.666 1.44449 13.6663H12.5556C12.8502 13.666 13.1326 13.5488 13.3409 13.3405C13.5492 13.1322 13.6664 12.8498 13.6667 12.5552V3.11079C13.6667 3.02453 13.6466 2.93945 13.608 2.86231ZM9.74991 8.92438L7.3929 11.2814C7.38914 11.2852 7.38497 11.2884 7.38114 11.2921C7.37188 11.3008 7.36266 11.3096 7.35279 11.3177C7.34814 11.3215 7.34316 11.3248 7.33841 11.3285C7.32875 11.3359 7.31919 11.3434 7.30905 11.3502C7.30515 11.3528 7.30098 11.355 7.29701 11.3575C7.28565 11.3647 7.27423 11.3719 7.26232 11.3783C7.25937 11.3799 7.25629 11.3811 7.2533 11.3826C7.24015 11.3894 7.22682 11.3959 7.21306 11.4016C7.21109 11.4025 7.20899 11.4031 7.20699 11.4039C7.19224 11.4098 7.17732 11.4153 7.16195 11.42C7.15992 11.4206 7.15782 11.421 7.15578 11.4216C7.14052 11.426 7.12513 11.4301 7.1094 11.4332C7.10485 11.4342 7.10017 11.4345 7.09559 11.4353C7.08234 11.4376 7.06908 11.44 7.05551 11.4413C7.01863 11.4451 6.98145 11.4451 6.94457 11.4413C6.931 11.44 6.91774 11.4376 6.90449 11.4353C6.89991 11.4345 6.89523 11.4342 6.89069 11.4332C6.87495 11.4301 6.85956 11.426 6.8443 11.4216C6.84226 11.421 6.84016 11.4206 6.83813 11.42C6.82273 11.4153 6.80771 11.4097 6.79293 11.4038C6.79099 11.403 6.78896 11.4024 6.78702 11.4016C6.77326 11.3959 6.75993 11.3894 6.74674 11.3826C6.74379 11.3811 6.7407 11.3799 6.73775 11.3783C6.72585 11.3719 6.71442 11.3647 6.70306 11.3575C6.6991 11.355 6.69493 11.3528 6.69103 11.3502C6.68089 11.3434 6.67133 11.3359 6.66166 11.3285C6.65692 11.3248 6.65193 11.3215 6.64729 11.3177C6.63769 11.3098 6.62874 11.3012 6.61969 11.2928C6.61558 11.2889 6.61118 11.2854 6.60717 11.2814L4.25017 8.92438C4.14598 8.82019 4.08744 8.67888 4.08744 8.53153C4.08743 8.38418 4.14596 8.24287 4.25015 8.13867C4.35434 8.03448 4.49566 7.97594 4.64301 7.97594C4.79035 7.97594 4.93167 8.03447 5.03586 8.13866L6.44448 9.54731V5.33301C6.44448 5.18567 6.50302 5.04436 6.6072 4.94017C6.71139 4.83598 6.8527 4.77745 7.00004 4.77745C7.14738 4.77745 7.28869 4.83598 7.39288 4.94017C7.49706 5.04436 7.5556 5.18567 7.5556 5.33301V9.54731L8.96422 8.13866C9.01581 8.08707 9.07706 8.04614 9.14446 8.01822C9.21187 7.9903 9.28412 7.97594 9.35708 7.97594C9.43004 7.97594 9.50228 7.99031 9.56969 8.01823C9.63709 8.04615 9.69834 8.08708 9.74993 8.13867C9.80152 8.19026 9.84244 8.25151 9.87036 8.31892C9.89828 8.38632 9.91265 8.45857 9.91265 8.53153C9.91265 8.60449 9.89827 8.67673 9.87035 8.74414C9.84243 8.81155 9.80151 8.87279 9.74991 8.92438L9.74991 8.92438ZM1.78784 2.55523L2.3434 1.44412H11.6567L12.2122 2.55523H1.78784Z" fill="#757F99"/>
<path d="M12.4969 0.640083L13.1678 0.304673L13.1677 0.304651L12.4969 0.640083ZM12 0.333008V1.08301H12.0001L12 0.333008ZM2.00004 0.333008L2.00002 1.08301H2.00004V0.333008ZM1.50315 0.640083L0.832337 0.304651L0.832327 0.304673L1.50315 0.640083ZM0.392036 2.86231L1.06284 3.19776L1.06286 3.19772L0.392036 2.86231ZM0.333374 3.11079H1.08337V3.11076L0.333374 3.11079ZM0.333374 12.5552H-0.416626L-0.416625 12.5561L0.333374 12.5552ZM1.44449 13.6663L1.44363 14.4163H1.44449V13.6663ZM12.5556 13.6663V14.4163L12.5565 14.4163L12.5556 13.6663ZM13.6667 12.5552L14.4167 12.5561V12.5552H13.6667ZM13.6667 3.11079L12.9167 3.11076V3.11079H13.6667ZM9.74991 8.92438L10.2802 9.45471L10.3328 9.4022L10.3739 9.34041L9.74991 8.92438ZM7.3929 11.2814L7.92323 11.8118L7.92324 11.8118L7.3929 11.2814ZM7.38114 11.2921L7.89633 11.8371L7.89681 11.8367L7.38114 11.2921ZM7.35279 11.3177L6.87677 10.7381L6.87558 10.7391L7.35279 11.3177ZM7.33841 11.3285L7.79539 11.9232L7.79662 11.9223L7.33841 11.3285ZM7.30905 11.3502L7.7263 11.9734L7.72753 11.9726L7.30905 11.3502ZM7.29701 11.3575L6.89598 10.7237L6.89462 10.7246L7.29701 11.3575ZM7.26232 11.3783L6.9081 10.7172L6.90523 10.7187L7.26232 11.3783ZM7.2533 11.3826L6.91768 10.7118L6.90969 10.716L7.2533 11.3826ZM7.21306 11.4016L6.92481 10.7092L6.91612 10.7129L7.21306 11.4016ZM7.20699 11.4039L7.48691 12.0997L7.4896 12.0986L7.20699 11.4039ZM7.16195 11.42L6.94339 10.7025L6.93543 10.705L7.16195 11.42ZM7.15578 11.4216L6.9513 10.7L6.94605 10.7015L7.15578 11.4216ZM7.1094 11.4332L6.96193 10.6979L6.96118 10.698L7.1094 11.4332ZM7.09559 11.4353L7.22409 12.1743L7.2269 12.1738L7.09559 11.4353ZM7.05551 11.4413L6.98274 10.6948L6.9796 10.6952L7.05551 11.4413ZM6.94457 11.4413L7.02048 10.6952L7.01718 10.6948L6.94457 11.4413ZM6.90449 11.4353L6.77318 12.1738L6.77599 12.1743L6.90449 11.4353ZM6.89069 11.4332L7.0389 10.698L7.03808 10.6979L6.89069 11.4332ZM6.8443 11.4216L7.05401 10.7015L7.04878 10.7L6.8443 11.4216ZM6.83813 11.42L7.06467 10.705L7.05624 10.7024L6.83813 11.42ZM6.79293 11.4038L6.51227 12.0993L6.51354 12.0998L6.79293 11.4038ZM6.78702 11.4016L7.07776 10.7103L7.07525 10.7092L6.78702 11.4016ZM6.74674 11.3826L6.40183 12.0486L6.40382 12.0496L6.74674 11.3826ZM6.73775 11.3783L7.09425 10.7184L7.09189 10.7171L6.73775 11.3783ZM6.70306 11.3575L7.10546 10.7246L7.10394 10.7236L6.70306 11.3575ZM6.69103 11.3502L6.27259 11.9727L6.27362 11.9733L6.69103 11.3502ZM6.66166 11.3285L6.20359 11.9223L6.20467 11.9232L6.66166 11.3285ZM6.64729 11.3177L7.12463 10.7392L7.12278 10.7377L6.64729 11.3177ZM6.61969 11.2928L6.10539 11.8386L6.10707 11.8402L6.61969 11.2928ZM6.60717 11.2814L6.07684 11.8118L6.07689 11.8118L6.60717 11.2814ZM4.25017 8.92438L4.7805 8.39406L4.78049 8.39404L4.25017 8.92438ZM5.03586 8.13866L5.5662 7.60833L5.56618 7.60832L5.03586 8.13866ZM6.44448 9.54731L5.91415 10.0776L7.19448 11.358V9.54731H6.44448ZM7.5556 9.54731H6.8056V11.358L8.08593 10.0776L7.5556 9.54731ZM8.96422 8.13866L8.4339 7.60831L8.43388 7.60833L8.96422 8.13866ZM9.87036 8.31892L10.5633 8.03192L9.87036 8.31892ZM9.74991 8.92438L9.21959 8.39404L9.16707 8.44656L9.12588 8.50836L9.74991 8.92438ZM1.78784 2.55523L1.11702 2.21982L0.574316 3.30523H1.78784V2.55523ZM2.3434 1.44412V0.694119H1.87987L1.67258 1.10871L2.3434 1.44412ZM11.6567 1.44412L12.3275 1.10871L12.1202 0.694119H11.6567V1.44412ZM12.2122 2.55523V3.30523H13.4258L12.8831 2.21982L12.2122 2.55523ZM14.2789 2.52689L13.1678 0.304673L11.8261 0.975493L12.9372 3.19772L14.2789 2.52689ZM13.1677 0.304651C13.0593 0.0877975 12.8926 -0.094576 12.6864 -0.222034L11.8978 1.05397C11.8671 1.03498 11.8423 1.00782 11.8261 0.975514L13.1677 0.304651ZM12.6864 -0.222034C12.4801 -0.349493 12.2425 -0.417 12 -0.416992L12.0001 1.08301C11.964 1.08301 11.9285 1.07295 11.8978 1.05397L12.6864 -0.222034ZM12 -0.416992H2.00004V1.08301H12V-0.416992ZM2.00007 -0.416992C1.75761 -0.417 1.51995 -0.349493 1.3137 -0.222034L2.10225 1.05397C2.07153 1.07295 2.03613 1.08301 2.00002 1.08301L2.00007 -0.416992ZM1.3137 -0.222034C1.10745 -0.0945754 0.940772 0.0877984 0.832337 0.304651L2.17396 0.975514C2.1578 1.00782 2.13298 1.03498 2.10225 1.05397L1.3137 -0.222034ZM0.832327 0.304673L-0.278785 2.52689L1.06286 3.19772L2.17397 0.975493L0.832327 0.304673ZM-0.278764 2.52685C-0.369432 2.70816 -0.416633 2.90809 -0.416626 3.11081L1.08337 3.11076C1.08338 3.14096 1.07634 3.17075 1.06284 3.19776L-0.278764 2.52685ZM-0.416626 3.11079V12.5552H1.08337V3.11079H-0.416626ZM-0.416625 12.5561C-0.416061 13.0493 -0.21989 13.5221 0.128853 13.8709L1.18951 12.8102C1.12165 12.7423 1.08348 12.6503 1.08337 12.5544L-0.416625 12.5561ZM0.128853 13.8709C0.477596 14.2196 0.950431 14.4158 1.44363 14.4163L1.44534 12.9163C1.34938 12.9162 1.25737 12.8781 1.18951 12.8102L0.128853 13.8709ZM1.44449 14.4163H12.5556V12.9163H1.44449V14.4163ZM12.5565 14.4163C13.0497 14.4158 13.5225 14.2196 13.8712 13.8709L12.8106 12.8102C12.7427 12.8781 12.6507 12.9162 12.5547 12.9163L12.5565 14.4163ZM13.8712 13.8709C14.22 13.5221 14.4161 13.0493 14.4167 12.5561L12.9167 12.5544C12.9166 12.6503 12.8784 12.7423 12.8106 12.8102L13.8712 13.8709ZM14.4167 12.5552V3.11079H12.9167V12.5552H14.4167ZM14.4167 3.11081C14.4167 2.9081 14.3695 2.70816 14.2788 2.52685L12.9372 3.19776C12.9237 3.17074 12.9167 3.14096 12.9167 3.11076L14.4167 3.11081ZM9.21958 8.39406L6.86257 10.7511L7.92324 11.8118L10.2802 9.45471L9.21958 8.39406ZM6.86257 10.7511C6.87223 10.7414 6.88031 10.7339 6.88548 10.7292C6.88811 10.7269 6.89025 10.7249 6.89164 10.7237C6.89299 10.7225 6.89394 10.7217 6.89402 10.7216C6.89406 10.7216 6.89405 10.7216 6.89377 10.7218C6.89357 10.722 6.89308 10.7224 6.89256 10.7229C6.89151 10.7238 6.88957 10.7255 6.88725 10.7276C6.8827 10.7316 6.87484 10.7386 6.86546 10.7475L7.89681 11.8367C7.88935 11.8437 7.88345 11.849 7.88088 11.8513C7.87954 11.8524 7.8786 11.8533 7.87854 11.8533C7.87852 11.8533 7.87853 11.8533 7.87883 11.8531C7.87904 11.8529 7.87953 11.8524 7.88007 11.852C7.88196 11.8503 7.88767 11.8453 7.89455 11.8391C7.90168 11.8326 7.91169 11.8233 7.92323 11.8118L6.86257 10.7511ZM6.86594 10.747C6.86296 10.7499 6.86189 10.7509 6.86064 10.752C6.85967 10.7529 6.85981 10.7528 6.86059 10.7521C6.86203 10.7508 6.86792 10.7454 6.87678 10.7381L7.8288 11.8973C7.86287 11.8693 7.89219 11.841 7.89633 11.8371L6.86594 10.747ZM6.87558 10.7391C6.88444 10.7318 6.89179 10.7261 6.89657 10.7225C6.90116 10.719 6.90454 10.7166 6.90466 10.7165C6.90475 10.7164 6.90476 10.7164 6.90456 10.7166C6.90447 10.7166 6.90437 10.7167 6.9042 10.7168C6.90405 10.7169 6.90384 10.7171 6.90361 10.7173C6.90279 10.7179 6.90111 10.7191 6.89915 10.7205C6.89529 10.7233 6.88844 10.7284 6.88021 10.7347L7.79662 11.9223C7.79076 11.9268 7.78631 11.93 7.78486 11.9311C7.78411 11.9316 7.78365 11.932 7.78403 11.9317C7.78455 11.9313 7.7841 11.9317 7.7849 11.9311C7.78531 11.9308 7.78592 11.9303 7.78662 11.9298C7.78916 11.928 7.79495 11.9238 7.80193 11.9185C7.8091 11.913 7.81882 11.9055 7.83 11.8963L6.87558 10.7391ZM6.88144 10.7338C6.87984 10.735 6.87827 10.7362 6.87717 10.7371C6.87595 10.738 6.87515 10.7386 6.87444 10.7392C6.873 10.7403 6.87295 10.7403 6.87357 10.7398C6.87466 10.739 6.88102 10.7343 6.89057 10.7278L7.72753 11.9726C7.7623 11.9492 7.79474 11.9237 7.79539 11.9232L6.88144 10.7338ZM6.8918 10.727C6.90209 10.7201 6.91058 10.7148 6.91598 10.7116C6.91873 10.7099 6.92096 10.7085 6.92242 10.7077C6.92384 10.7068 6.92484 10.7063 6.92495 10.7062C6.92501 10.7062 6.92501 10.7062 6.92474 10.7063C6.92455 10.7064 6.92406 10.7067 6.92355 10.707C6.92251 10.7076 6.92056 10.7088 6.91821 10.7101C6.91361 10.7129 6.90563 10.7176 6.89598 10.7237L7.69805 11.9913C7.69038 11.9961 7.6844 11.9997 7.68183 12.0012C7.68049 12.002 7.67955 12.0026 7.67953 12.0026C7.67952 12.0026 7.67953 12.0026 7.67985 12.0024C7.68009 12.0023 7.6806 12.002 7.68116 12.0016C7.68313 12.0005 7.68903 11.997 7.69618 11.9927C7.70358 11.9882 7.71406 11.9816 7.7263 11.9734L6.8918 10.727ZM6.89462 10.7246C6.88989 10.7276 6.88994 10.7275 6.89159 10.7265C6.89357 10.7253 6.89946 10.7218 6.9081 10.7172L7.61655 12.0393C7.65544 12.0185 7.68763 11.9979 7.6994 11.9904L6.89462 10.7246ZM6.90523 10.7187C6.91646 10.7127 6.92581 10.708 6.93206 10.705C6.93809 10.702 6.94268 10.6999 6.94338 10.6996C6.94348 10.6995 6.94426 10.6992 6.943 10.6998C6.9423 10.7001 6.94061 10.7009 6.93856 10.7018C6.93454 10.7037 6.92698 10.7072 6.91771 10.7119L7.5889 12.0533C7.58112 12.0572 7.57506 12.0601 7.57255 12.0612C7.57186 12.0616 7.57131 12.0618 7.57096 12.062C7.57062 12.0621 7.57039 12.0622 7.57038 12.0622C7.56988 12.0625 7.57142 12.0618 7.57227 12.0614C7.57448 12.0604 7.58059 12.0575 7.58812 12.0539C7.59587 12.0501 7.60671 12.0447 7.61942 12.0378L6.90523 10.7187ZM6.90969 10.716C6.90772 10.717 6.90839 10.7166 6.91074 10.7155C6.91317 10.7143 6.91803 10.7121 6.92483 10.7092L7.50128 12.094C7.54165 12.0772 7.57516 12.0605 7.59692 12.0493L6.90969 10.716ZM6.91612 10.7129C6.93158 10.7063 6.94433 10.7014 6.95234 10.6984C6.95643 10.6969 6.95977 10.6958 6.96195 10.695C6.96406 10.6942 6.96565 10.6937 6.96583 10.6936C6.96679 10.6933 6.96492 10.6939 6.96398 10.6943C6.9625 10.6948 6.95978 10.6957 6.95641 10.6969C6.94983 10.6993 6.93837 10.7035 6.92437 10.7092L7.4896 12.0986C7.4766 12.1039 7.46616 12.1077 7.4606 12.1097C7.45774 12.1107 7.45552 12.1115 7.45456 12.1118C7.45412 12.1119 7.45276 12.1124 7.45423 12.1119C7.45518 12.1116 7.46219 12.1092 7.47078 12.106C7.47979 12.1027 7.49354 12.0974 7.50999 12.0903L6.91612 10.7129ZM6.92706 10.7081C6.92572 10.7086 6.93206 10.706 6.9434 10.7025L7.38051 12.1374C7.42257 12.1246 7.45875 12.111 7.48691 12.0997L6.92706 10.7081ZM6.93543 10.705C6.95032 10.7003 6.96265 10.6969 6.97079 10.6948C6.9786 10.6927 6.98465 10.6913 6.98545 10.6911C6.98575 10.6911 6.98597 10.691 6.98582 10.691C6.98579 10.691 6.98534 10.6911 6.98487 10.6913C6.9839 10.6915 6.98171 10.692 6.97897 10.6927C6.97365 10.694 6.96366 10.6965 6.95131 10.7L7.36026 12.1432C7.34892 12.1464 7.33996 12.1486 7.33567 12.1497C7.33345 12.1502 7.33177 12.1506 7.33132 12.1507C7.3311 12.1508 7.33091 12.1508 7.33114 12.1507C7.33125 12.1507 7.33173 12.1506 7.33229 12.1505C7.33412 12.15 7.34121 12.1484 7.35005 12.146C7.35922 12.1437 7.37257 12.14 7.38848 12.135L6.93543 10.705ZM6.94605 10.7015C6.94213 10.7026 6.94904 10.7005 6.96193 10.6979L7.25686 12.1686C7.30122 12.1597 7.33892 12.1494 7.36552 12.1416L6.94605 10.7015ZM6.96118 10.698C6.97459 10.6953 6.98544 10.6936 6.99215 10.6925C6.99558 10.692 6.99833 10.6916 7.00007 10.6914C7.00176 10.6911 7.00295 10.691 7.00296 10.691C7.00299 10.691 7.00298 10.691 7.0029 10.691C7.00279 10.691 7.00274 10.691 7.00252 10.691C7.0022 10.6911 7.00156 10.6911 7.00082 10.6912C6.99937 10.6914 6.99679 10.6918 6.99366 10.6922C6.98755 10.6931 6.97708 10.6946 6.96429 10.6969L7.2269 12.1738C7.21639 12.1756 7.20823 12.1768 7.20442 12.1774C7.20245 12.1776 7.20102 12.1778 7.20073 12.1779C7.20057 12.1779 7.2005 12.1779 7.20076 12.1779C7.20091 12.1778 7.20149 12.1778 7.20205 12.1777C7.20401 12.1774 7.21112 12.1765 7.21978 12.1752C7.22879 12.1738 7.24193 12.1716 7.25761 12.1684L6.96118 10.698ZM6.9671 10.6964C6.96306 10.6971 6.96151 10.6974 6.95995 10.6977C6.9587 10.6979 6.95902 10.6978 6.96024 10.6976C6.96253 10.6973 6.97083 10.696 6.98274 10.6948L7.12828 12.1878C7.17505 12.1832 7.21709 12.1755 7.22409 12.1743L6.9671 10.6964ZM6.9796 10.6952C6.99319 10.6938 7.00689 10.6938 7.02048 10.6952L6.86866 12.1875C6.95602 12.1963 7.04406 12.1963 7.13142 12.1875L6.9796 10.6952ZM7.01718 10.6948C7.02919 10.696 7.03756 10.6973 7.03988 10.6976C7.04111 10.6978 7.04143 10.6979 7.04017 10.6977C7.0386 10.6974 7.03706 10.6971 7.03298 10.6964L6.77599 12.1743C6.78282 12.1754 6.82505 12.1832 6.87195 12.1878L7.01718 10.6948ZM7.03579 10.6969C7.023 10.6946 7.01253 10.6931 7.00642 10.6922C7.00329 10.6918 7.00071 10.6914 6.99926 10.6912C6.99852 10.6911 6.99788 10.6911 6.99756 10.691C6.99735 10.691 6.99729 10.691 6.99718 10.691C6.9971 10.691 6.99709 10.691 6.99712 10.691C6.99713 10.691 6.99832 10.6911 7.00001 10.6914C7.00175 10.6916 7.00451 10.692 7.00793 10.6925C7.01464 10.6936 7.02549 10.6953 7.0389 10.698L6.74248 12.1684C6.75815 12.1716 6.7713 12.1738 6.7803 12.1752C6.78896 12.1765 6.79607 12.1774 6.79803 12.1777C6.79859 12.1778 6.79918 12.1778 6.79932 12.1779C6.79958 12.1779 6.79951 12.1779 6.79935 12.1779C6.79906 12.1778 6.79763 12.1776 6.79566 12.1774C6.79185 12.1768 6.78369 12.1756 6.77318 12.1738L7.03579 10.6969ZM7.03808 10.6979C7.05106 10.7005 7.05803 10.7027 7.054 10.7015L6.63459 12.1417C6.66109 12.1494 6.69884 12.1597 6.74329 12.1686L7.03808 10.6979ZM7.04878 10.7C7.03642 10.6965 7.02643 10.694 7.02111 10.6927C7.01837 10.692 7.01618 10.6915 7.01521 10.6913C7.01474 10.6911 7.01429 10.691 7.01426 10.691C7.01411 10.691 7.01433 10.6911 7.01463 10.6911C7.01543 10.6913 7.02148 10.6927 7.02929 10.6948C7.03743 10.6969 7.04976 10.7003 7.06465 10.705L6.6116 12.135C6.62751 12.14 6.64086 12.1437 6.65003 12.146C6.65887 12.1484 6.66596 12.15 6.6678 12.1505C6.66835 12.1506 6.66883 12.1507 6.66894 12.1507C6.66917 12.1508 6.66898 12.1508 6.66876 12.1507C6.66831 12.1506 6.66663 12.1502 6.66442 12.1497C6.66012 12.1486 6.65116 12.1464 6.63982 12.1432L7.04878 10.7ZM7.05624 10.7024C7.0685 10.7061 7.07508 10.7089 7.07231 10.7078L6.51354 12.0998C6.54034 12.1106 6.57696 12.1245 6.62001 12.1376L7.05624 10.7024ZM7.07358 10.7083C7.0608 10.7031 7.05034 10.6993 7.04426 10.6971C7.04115 10.696 7.03862 10.6951 7.0372 10.6946C7.03613 10.6943 7.03459 10.6937 7.03523 10.694C7.03528 10.694 7.0366 10.6944 7.03834 10.6951C7.04016 10.6957 7.04301 10.6967 7.04651 10.698C7.05337 10.7005 7.06437 10.7046 7.07775 10.7103L6.49629 12.093C6.51065 12.099 6.52262 12.1035 6.53047 12.1064C6.53791 12.1091 6.54402 12.1113 6.54472 12.1115C6.54585 12.1119 6.54481 12.1115 6.54424 12.1113C6.54332 12.111 6.54128 12.1103 6.53866 12.1094C6.53357 12.1075 6.52409 12.1041 6.51227 12.0993L7.07358 10.7083ZM7.07525 10.7092C7.08204 10.7121 7.08687 10.7143 7.08917 10.7154C7.09138 10.7165 7.09189 10.7167 7.08966 10.7156L6.40382 12.0496C6.42507 12.0605 6.45849 12.0773 6.4988 12.094L7.07525 10.7092ZM7.09165 10.7166C7.07992 10.7106 7.07025 10.7059 7.06454 10.7032C7.06163 10.7018 7.05924 10.7007 7.05789 10.7001C7.05702 10.6997 7.05524 10.6989 7.05594 10.6992C7.05596 10.6992 7.05711 10.6998 7.05869 10.7005C7.06033 10.7013 7.06291 10.7025 7.06608 10.704C7.07233 10.707 7.08223 10.7119 7.09424 10.7184L6.38126 12.0381C6.39475 12.0454 6.40614 12.0511 6.41389 12.0548C6.42127 12.0584 6.42736 12.0612 6.42855 12.0617C6.43001 12.0624 6.42898 12.0619 6.42886 12.0619C6.42827 12.0616 6.42663 12.0608 6.42447 12.0598C6.42026 12.0578 6.41208 12.0539 6.40183 12.0486L7.09165 10.7166ZM7.09189 10.7171C7.10058 10.7218 7.10652 10.7254 7.1085 10.7266C7.11016 10.7276 7.11023 10.7276 7.10546 10.7246L6.30067 11.9904C6.31236 11.9979 6.34463 12.0185 6.38362 12.0394L7.09189 10.7171ZM7.10394 10.7236C7.09432 10.7176 7.08635 10.7128 7.08178 10.7101C7.07945 10.7087 7.07751 10.7076 7.07649 10.707C7.07598 10.7067 7.07549 10.7064 7.07531 10.7063C7.07505 10.7062 7.07506 10.7062 7.07513 10.7062C7.07525 10.7063 7.07627 10.7069 7.0777 10.7077C7.07917 10.7086 7.08142 10.7099 7.08418 10.7116C7.0896 10.7149 7.09812 10.7202 7.10843 10.7271L6.27362 11.9733C6.28589 11.9816 6.29639 11.9881 6.30381 11.9926C6.311 11.997 6.31691 12.0005 6.31892 12.0016C6.31949 12.002 6.32 12.0023 6.32025 12.0024C6.32058 12.0026 6.32059 12.0026 6.32059 12.0026C6.32058 12.0026 6.31965 12.0021 6.31833 12.0013C6.31578 11.9998 6.30983 11.9962 6.30219 11.9914L7.10394 10.7236ZM7.10946 10.7278C7.11904 10.7342 7.12541 10.739 7.12652 10.7399C7.12714 10.7403 7.1271 10.7403 7.12567 10.7392C7.12495 10.7386 7.12415 10.738 7.12293 10.7371C7.12184 10.7362 7.12027 10.735 7.11866 10.7338L6.20467 11.9232C6.20529 11.9237 6.23778 11.9492 6.2726 11.9727L7.10946 10.7278ZM7.11974 10.7346C7.11153 10.7283 7.1047 10.7233 7.10086 10.7205C7.09891 10.719 7.09725 10.7178 7.09643 10.7172C7.09621 10.7171 7.096 10.7169 7.09586 10.7168C7.09569 10.7167 7.09559 10.7166 7.0955 10.7166C7.09531 10.7164 7.09532 10.7164 7.09542 10.7165C7.09556 10.7166 7.09896 10.7191 7.10357 10.7226C7.10837 10.7262 7.11574 10.7319 7.12463 10.7392L6.16995 11.8962C6.18115 11.9054 6.19089 11.913 6.19808 11.9184C6.20508 11.9237 6.21089 11.928 6.21346 11.9298C6.21416 11.9303 6.21477 11.9308 6.21519 11.9311C6.21622 11.9318 6.21533 11.9312 6.21607 11.9317C6.21647 11.932 6.21602 11.9317 6.21527 11.9311C6.21385 11.9301 6.20942 11.9268 6.20359 11.9223L7.11974 10.7346ZM7.12278 10.7377C7.13287 10.746 7.13954 10.7521 7.14059 10.7531C7.14118 10.7536 7.14115 10.7536 7.13962 10.7522C7.13883 10.7514 7.13807 10.7507 7.13676 10.7495C7.13559 10.7484 7.134 10.7469 7.1323 10.7453L6.10707 11.8402C6.10967 11.8427 6.1086 11.8417 6.11332 11.8461C6.11632 11.8489 6.12081 11.8531 6.12598 11.8579C6.13617 11.8672 6.15211 11.8816 6.1718 11.8977L7.12278 10.7377ZM7.13398 10.7469C7.12504 10.7384 7.11755 10.7317 7.11322 10.7279C7.11102 10.726 7.10917 10.7244 7.10819 10.7235C7.10772 10.7231 7.10723 10.7227 7.10707 10.7225C7.10681 10.7223 7.10681 10.7223 7.10687 10.7224C7.10697 10.7224 7.10791 10.7233 7.10925 10.7245C7.11062 10.7257 7.1127 10.7275 7.11526 10.7299C7.1203 10.7344 7.12812 10.7417 7.13746 10.751L6.07689 11.8118C6.08823 11.8231 6.0981 11.8323 6.10522 11.8388C6.11211 11.8451 6.11783 11.8501 6.11992 11.8519C6.12006 11.852 6.12286 11.8545 6.12177 11.8535C6.12177 11.8535 6.12176 11.8535 6.12174 11.8535C6.12172 11.8535 6.12169 11.8535 6.12165 11.8534C6.12157 11.8534 6.12145 11.8533 6.1213 11.8531C6.121 11.8529 6.12052 11.8524 6.11991 11.8519C6.11768 11.8499 6.11229 11.8451 6.10539 11.8386L7.13398 10.7469ZM7.13751 10.7511L4.7805 8.39406L3.71984 9.45471L6.07684 11.8118L7.13751 10.7511ZM4.78049 8.39404C4.81695 8.4305 4.83743 8.47995 4.83744 8.53152L3.33744 8.53155C3.33744 8.87781 3.475 9.20989 3.71985 9.45472L4.78049 8.39404ZM4.83744 8.53152C4.83744 8.58308 4.81696 8.63253 4.78049 8.66899L3.71981 7.60835C3.47497 7.8532 3.33743 8.18529 3.33744 8.53155L4.83744 8.53152ZM4.78049 8.66899C4.74404 8.70545 4.69458 8.72594 4.64302 8.72594L4.64299 7.22594C4.29673 7.22595 3.96465 7.36351 3.71981 7.60835L4.78049 8.66899ZM4.64302 8.72594C4.59146 8.72594 4.54201 8.70546 4.50554 8.669L5.56618 7.60832C5.32133 7.36348 4.98925 7.22593 4.64299 7.22594L4.64302 8.72594ZM4.50553 8.66898L5.91415 10.0776L6.97482 9.01699L5.5662 7.60833L4.50553 8.66898ZM7.19448 9.54731V5.33301H5.69448V9.54731H7.19448ZM7.19448 5.33301C7.19448 5.38458 7.174 5.43404 7.13753 5.4705L6.07687 4.40984C5.83203 4.65468 5.69448 4.98675 5.69448 5.33301H7.19448ZM7.13753 5.4705C7.10107 5.50697 7.05161 5.52745 7.00004 5.52745V4.02745C6.65378 4.02745 6.32171 4.165 6.07687 4.40984L7.13753 5.4705ZM7.00004 5.52745C6.94847 5.52745 6.89901 5.50697 6.86255 5.4705L7.92321 4.40984C7.67837 4.165 7.34629 4.02745 7.00004 4.02745V5.52745ZM6.86255 5.4705C6.82608 5.43403 6.8056 5.38458 6.8056 5.33301H8.3056C8.3056 4.98675 8.16805 4.65468 7.92321 4.40984L6.86255 5.4705ZM6.8056 5.33301V9.54731H8.3056V5.33301H6.8056ZM8.08593 10.0776L9.49456 8.66898L8.43388 7.60833L7.02526 9.01699L8.08593 10.0776ZM9.49454 8.669C9.47649 8.68705 9.45506 8.70137 9.43146 8.71114L8.85747 7.32531C8.69906 7.39092 8.55513 7.48709 8.4339 7.60831L9.49454 8.669ZM9.43146 8.71114C9.40787 8.72091 9.38259 8.72594 9.35706 8.72594L9.35709 7.22594C9.18565 7.22593 9.01587 7.2597 8.85747 7.32531L9.43146 8.71114ZM9.35706 8.72594C9.33154 8.72594 9.30625 8.72091 9.28266 8.71114L9.85671 7.32533C9.69831 7.25971 9.52854 7.22594 9.35709 7.22594L9.35706 8.72594ZM9.28266 8.71114C9.25907 8.70137 9.23764 8.68704 9.21959 8.66899L10.2803 7.60835C10.159 7.48711 10.0151 7.39094 9.85671 7.32533L9.28266 8.71114ZM9.21959 8.66899C9.20153 8.65093 9.18721 8.6295 9.17745 8.60592L10.5633 8.03192C10.4977 7.87352 10.4015 7.72959 10.2803 7.60835L9.21959 8.66899ZM9.17745 8.60592C9.16768 8.58233 9.16265 8.55705 9.16265 8.53151L10.6626 8.53154C10.6627 8.36009 10.6289 8.19032 10.5633 8.03192L9.17745 8.60592ZM9.16265 8.53151C9.16265 8.50598 9.16768 8.4807 9.17745 8.45711L10.5633 9.03117C10.6289 8.87277 10.6626 8.703 10.6626 8.53154L9.16265 8.53151ZM9.17745 8.45711C9.18722 8.43352 9.20154 8.41209 9.21959 8.39404L10.2802 9.45472C10.4015 9.33349 10.4976 9.18957 10.5633 9.03117L9.17745 8.45711ZM9.12588 8.50836L9.12587 8.50836L10.3739 9.34041L10.374 9.34041L9.12588 8.50836ZM2.45866 2.89064L3.01422 1.77953L1.67258 1.10871L1.11702 2.21982L2.45866 2.89064ZM2.3434 2.19412H11.6567V0.694119H2.3434V2.19412ZM10.9859 1.77953L11.5414 2.89064L12.8831 2.21982L12.3275 1.10871L10.9859 1.77953ZM12.2122 1.80523H1.78784V3.30523H12.2122V1.80523Z" fill="#757F99" mask="url(#path-1-inside-1_4094_266769)"/>
</svg>
