<svg width="18" height="18" viewBox="0 0 18 18" fill="none" xmlns="http://www.w3.org/2000/svg">
<path fill-rule="evenodd" clip-rule="evenodd" d="M9 17.25C13.5563 17.25 17.25 13.5563 17.25 9C17.25 4.44365 13.5563 0.75 9 0.75C4.44365 0.75 0.75 4.44365 0.75 9C0.75 13.5563 4.44365 17.25 9 17.25ZM9 4.26562C9.33655 4.26562 9.60938 4.53845 9.60938 4.875V9.6875C9.60938 10.024 9.33655 10.2969 9 10.2969C8.66345 10.2969 8.39062 10.024 8.39062 9.6875V4.875C8.39062 4.53845 8.66345 4.26562 9 4.26562ZM10.0312 12.7812C10.0312 13.3508 9.56954 13.8125 9 13.8125C8.43046 13.8125 7.96875 13.3508 7.96875 12.7812C7.96875 12.2117 8.43046 11.75 9 11.75C9.56954 11.75 10.0312 12.2117 10.0312 12.7812Z" fill="#F32626"/>
</svg>
