<svg width="16" height="10" viewBox="0 0 16 10" fill="none" xmlns="http://www.w3.org/2000/svg">
<path fill-rule="evenodd" clip-rule="evenodd" d="M13.3426 3.15904C14.558 4.58895 15.3166 6.45586 15.5078 8.44587C15.5606 8.99562 15.1079 9.44443 14.5556 9.44443H8.00001C7.63258 9.44443 7.41997 9.02793 7.6355 8.73035L10.5448 4.71354C10.7588 4.41802 10.7047 3.99581 10.424 3.77051C10.1432 3.5452 9.74214 3.60213 9.5281 3.89765L5.81014 9.03101C5.62207 9.29069 5.32088 9.44443 5.00025 9.44443H1.44446C0.892173 9.44443 0.439442 8.99562 0.492258 8.44587C0.683441 6.45586 1.44201 4.58895 2.65743 3.15904C4.07437 1.49205 5.99616 0.555542 8.00001 0.555542C10.0039 0.555542 11.9257 1.49205 13.3426 3.15904Z" fill="#DBE2E8"/>
</svg>
