<svg width="18" height="18" viewBox="0 0 18 18" fill="none" xmlns="http://www.w3.org/2000/svg">
<path fill-rule="evenodd" clip-rule="evenodd" d="M11.9024 12.8216C10.9662 13.5596 9.78455 14 8.5 14C5.46243 14 3 11.5376 3 8.5C3 5.46243 5.46243 3 8.5 3C11.5376 3 14 5.46243 14 8.5C14 9.78457 13.5596 10.9663 12.8216 11.9024L14.8138 13.8946C15.0677 14.1484 15.0677 14.56 14.8138 14.8138C14.56 15.0677 14.1484 15.0677 13.8946 14.8138L11.9024 12.8216ZM6 8.5C6 8.22386 6.22386 8 6.5 8H10.5C10.7761 8 11 8.22386 11 8.5C11 8.77614 10.7761 9 10.5 9H6.5C6.22386 9 6 8.77614 6 8.5Z" fill="#757F99"/>
</svg>
