<svg width="40" height="40" viewBox="0 0 40 40" fill="none" xmlns="http://www.w3.org/2000/svg">
<path fill-rule="evenodd" clip-rule="evenodd" d="M28.5 14.5V5.25C28.5 4.65326 28.2629 4.08097 27.841 3.65901C27.419 3.23705 26.8467 3 26.25 3H6.25C5.65326 3 5.08097 3.23705 4.65901 3.65901C4.23705 4.08097 4 4.65326 4 5.25V25.25C4 25.6353 4.2214 25.9864 4.56914 26.1524C4.91687 26.3184 5.32906 26.2699 5.62871 26.0276L11.5381 21.25H12.5V30C12.5 30.4641 12.6844 30.9092 13.0126 31.2374C13.3408 31.5656 13.7859 31.75 14.25 31.75H29.1388L35.1856 36.6388C35.3355 36.76 35.5416 36.7842 35.7154 36.7012C35.8893 36.6182 36 36.4427 36 36.25V16.25C36 15.7859 35.8156 15.3408 35.4874 15.0126C35.1592 14.6844 34.7141 14.5 34.25 14.5H28.5ZM5 5.25V25.25L11.1844 20.25H26.25C26.5815 20.25 26.8995 20.1183 27.1339 19.8839C27.3683 19.6495 27.5 19.3315 27.5 19V5.25C27.5 4.91848 27.3683 4.60054 27.1339 4.36612C26.8995 4.1317 26.5815 4 26.25 4H6.25C5.91848 4 5.60054 4.1317 5.36612 4.36612C5.1317 4.60054 5 4.91848 5 5.25ZM28.5 15.5V19C28.5 19.5967 28.263 20.169 27.841 20.591C27.419 21.013 26.8467 21.25 26.25 21.25H13.5V30C13.5 30.1989 13.579 30.3897 13.7197 30.5303C13.8603 30.671 14.0511 30.75 14.25 30.75H29.3156C29.43 30.75 29.541 30.7892 29.63 30.8612L35 35.2028V16.25C35 16.0511 34.921 15.8603 34.7803 15.7197C34.6397 15.579 34.4489 15.5 34.25 15.5H28.5Z" fill="#CAD1D7"/>
</svg>
