<svg width="18" height="18" viewBox="0 0 18 18" fill="none" xmlns="http://www.w3.org/2000/svg">
<path d="M6.25505 5.5V3.66683C6.25505 3.51212 6.3165 3.36375 6.4259 3.25435C6.5353 3.14495 6.68367 3.0835 6.83838 3.0835H14.4217C14.5764 3.0835 14.7248 3.14495 14.8342 3.25435C14.9436 3.36375 15.005 3.51212 15.005 3.66683V11.2502C15.005 11.4049 14.9436 11.5532 14.8342 11.6626C14.7248 11.772 14.5764 11.8335 14.4217 11.8335H12.5V14.1627C12.5 14.4871 12.2381 14.7502 11.9126 14.7502H3.9258C3.84863 14.7502 3.77221 14.7351 3.70091 14.7056C3.62961 14.6761 3.56482 14.6328 3.51026 14.5783C3.4557 14.5237 3.41243 14.4589 3.38294 14.3876C3.35344 14.3163 3.3383 14.2399 3.33838 14.1627L3.33838 6.08742C3.33838 5.76308 3.6003 5.5 3.9258 5.5H6.25505ZM7.42171 5.5H11.9126C12.2369 5.5 12.5 5.76192 12.5 6.08742V10.6668H13.8384V4.25016H7.42171V5.5ZM7.06813 11.842C7.26341 12.0372 7.57998 12.0372 7.77522 11.8419L10.5618 9.05489C10.6606 8.95601 10.7006 8.81263 10.6671 8.67688C10.5931 8.37725 10.2217 8.2712 10.0007 8.4866L7.56695 10.8585C7.48707 10.9363 7.35894 10.9338 7.2822 10.8528L6.31197 9.82914C6.14069 9.64844 5.8544 9.64362 5.67715 9.81847C5.5015 9.99173 5.50056 10.2749 5.67504 10.4493L7.06813 11.842Z" fill="#757F99"/>
</svg>
