<svg width="14" height="14" viewBox="0 0 14 14" fill="none" xmlns="http://www.w3.org/2000/svg">
<path d="M8.26838 0.782089C8.13666 0.808866 7.9563 0.883013 7.8489 0.955101C7.6807 1.06632 1.25072 7.61401 1.13521 7.79114C0.661014 8.51409 0.658987 9.44094 1.1271 10.1762C1.17371 10.2483 1.58914 10.6891 2.19708 11.3091L3.19005 12.3224L3.70201 12.7607C4.32289 13.4027 5.15073 13.1887 6.84377 13.1854L12.9455 13.1792L13.0346 13.1174C13.292 12.9321 13.2839 12.5531 13.0144 12.3924L12.9191 12.3348L9.72135 12.3245L6.52561 12.3142L9.60787 9.18348C11.3648 7.39981 12.7205 6.00747 12.759 5.94568C12.8705 5.77267 12.9293 5.56258 12.9293 5.33808C12.9293 5.12387 12.9029 4.99823 12.8178 4.81698C12.7651 4.70782 12.5584 4.48949 10.9555 2.85412C9.96251 1.84282 9.10531 0.985997 9.05262 0.950982C8.8905 0.84388 8.70609 0.788269 8.50142 0.78003C8.40212 0.77591 8.29675 0.77797 8.26838 0.782089ZM6.60262 7.22267L8.47102 9.12169L7.02818 10.5861C6.12235 11.5047 5.54886 12.0711 5.49009 12.1041C5.43943 12.1329 5.32392 12.1824 5.23678 12.2133C5.10101 12.2606 5.04224 12.2689 4.85378 12.2709C4.65721 12.2709 4.6106 12.2627 4.45862 12.2091C4.36337 12.1741 4.23571 12.1123 4.17491 12.0711C4.11412 12.0299 3.56089 11.4841 2.94687 10.858C1.72694 9.61189 1.74315 9.63249 1.66209 9.305C1.6094 9.10109 1.6094 8.87453 1.66209 8.67062C1.74517 8.33696 1.69654 8.39463 3.27111 6.78808C4.06346 5.98275 4.71598 5.3216 4.72206 5.3216C4.72814 5.3216 5.57317 6.17636 6.60262 7.22267Z" fill="#757F99"/>
</svg>
