<svg width="18" height="18" viewBox="0 0 18 18" fill="none" xmlns="http://www.w3.org/2000/svg">
<path d="M13.9272 8.29323L6.29119 3.78066C6.16256 3.70461 6.01531 3.66306 5.86458 3.6603C5.71384 3.65754 5.56507 3.69367 5.43356 3.76497C5.30206 3.83626 5.19257 3.94015 5.11637 4.06594C5.04017 4.19173 5 4.33488 5 4.48067V13.5066C5.00012 13.6523 5.04037 13.7954 5.1166 13.9211C5.19283 14.0469 5.3023 14.1507 5.43376 14.222C5.56522 14.2932 5.71394 14.3294 5.86463 14.3267C6.01531 14.324 6.16254 14.2825 6.29119 14.2066L13.9272 9.69405C14.0513 9.62069 14.1538 9.51777 14.2249 9.39512C14.296 9.27248 14.3333 9.13424 14.3333 8.99364C14.3333 8.85304 14.296 8.71479 14.2249 8.59215C14.1538 8.46951 14.0513 8.36658 13.9272 8.29323Z" fill="#757F99"/>
</svg>
