<svg width="16" height="16" viewBox="0 0 16 16" fill="none" xmlns="http://www.w3.org/2000/svg">
<path fill-rule="evenodd" clip-rule="evenodd" d="M8 13.5C11.0376 13.5 13.5 11.0376 13.5 8C13.5 4.96243 11.0376 2.5 8 2.5C4.96243 2.5 2.5 4.96243 2.5 8C2.5 11.0376 4.96243 13.5 8 13.5ZM8 4.64062C8.33655 4.64062 8.60938 4.91345 8.60938 5.25V8.45833C8.60938 8.79488 8.33655 9.06771 8 9.06771C7.66345 9.06771 7.39062 8.79488 7.39062 8.45833V5.25C7.39062 4.91345 7.66345 4.64062 8 4.64062ZM8.6875 10.5208C8.6875 10.9005 8.3797 11.2083 8 11.2083C7.6203 11.2083 7.3125 10.9005 7.3125 10.5208C7.3125 10.1411 7.6203 9.83333 8 9.83333C8.3797 9.83333 8.6875 10.1411 8.6875 10.5208Z" fill="#F32626"/>
</svg>
