<svg width="18" height="18" viewBox="0 0 18 18" fill="none" xmlns="http://www.w3.org/2000/svg">
<path d="M14.9174 4.54282C14.8448 4.38046 14.7244 4.2424 14.5712 4.14587C14.4181 4.04934 14.2389 3.99861 14.0561 4.00003H3.9418C3.75934 4.00003 3.58081 4.05134 3.42791 4.14771C3.27501 4.24408 3.15432 4.38137 3.08051 4.5429C3.00669 4.70442 2.98294 4.88321 3.01213 5.05756C3.04132 5.2319 3.1222 5.39428 3.24494 5.52497L7.11539 9.64613V14.0881C7.11527 14.2531 7.16146 14.4151 7.24903 14.5567C7.3366 14.6984 7.46227 14.8143 7.6126 14.8922C7.76294 14.9701 7.9323 15.0069 8.10261 14.9989C8.27292 14.9909 8.43777 14.9382 8.57958 14.8466L10.4631 13.6311C10.5923 13.548 10.6982 13.4352 10.7713 13.3029C10.8445 13.1705 10.8827 13.0227 10.8826 12.8726V9.64619L14.753 5.52492C14.8771 5.39494 14.9588 5.23249 14.988 5.05783C15.0173 4.88317 14.9927 4.70405 14.9174 4.54282Z" fill="#757F99"/>
</svg>
