<svg width="16" height="10" viewBox="0 0 16 10" fill="none" xmlns="http://www.w3.org/2000/svg">
<path d="M1.72552 0.111084C1.26348 0.111084 0.888916 0.509053 0.888916 0.999973V4.44442H4.76481L6.24797 1.6183C6.35059 1.42275 6.55367 1.31176 6.76308 1.33679C6.97249 1.36181 7.14729 1.51795 7.20648 1.73283L8.51967 6.50092L9.61372 3.88545C9.69764 3.68482 9.8849 3.55553 10.0915 3.55553H12.6013C12.8901 3.55553 13.1242 3.80426 13.1242 4.11108C13.1242 4.41791 12.8901 4.66664 12.6013 4.66664H10.4313L8.89614 8.33672C8.80705 8.5497 8.60231 8.68095 8.38344 8.6654C8.16457 8.64985 7.9781 8.4908 7.9165 8.26711L6.55339 3.31782L5.5286 5.27053C5.43626 5.44648 5.26152 5.55553 5.07192 5.55553H0.888916V8.99997C0.888916 9.49089 1.26348 9.88886 1.72552 9.88886H14.2745C14.7366 9.88886 15.1111 9.49089 15.1111 8.99997V0.999973C15.1111 0.509053 14.7366 0.111084 14.2745 0.111084H1.72552Z" fill="#DBE2E8"/>
</svg>
