<svg width="18" height="18" viewBox="0 0 18 18" fill="none" xmlns="http://www.w3.org/2000/svg">
<path d="M3.75 15.0004H14.25V13.5004H3.75V15.0004ZM12.75 9.00035H11.19C10.8089 9.00035 10.5 8.69145 10.5 8.31035V8.08863C10.5 7.44715 10.7081 6.83684 11.003 6.26707C11.2165 5.85434 11.3053 5.36731 11.2151 4.85098C11.0564 3.94207 10.3134 3.19395 9.4043 3.03574C7.98328 2.78848 6.75 3.87527 6.75 5.25035C6.75 5.58223 6.82313 5.89582 6.95367 6.17801C7.26609 6.85418 7.5 7.56363 7.5 8.30871V8.31035C7.5 8.69145 7.19109 9.00035 6.81 9.00035H5.25C4.00734 9.00035 3 10.0077 3 11.2504V12.0004C3 12.4145 3.33586 12.7504 3.75 12.7504H14.25C14.6641 12.7504 15 12.4145 15 12.0004V11.2504C15 10.0077 13.9927 9.00035 12.75 9.00035Z" fill="#757F99"/>
</svg>
