<svg width="18" height="18" viewBox="0 0 18 18" fill="none" xmlns="http://www.w3.org/2000/svg">
<path d="M11.9187 10.6683C11.6407 10.6682 11.3656 10.7239 11.1096 10.8321C10.8535 10.9403 10.6218 11.0987 10.4282 11.2981L8.02726 9.75467C8.21582 9.27035 8.21582 8.73291 8.02726 8.24858L10.4282 6.70513C10.7886 7.07381 11.2731 7.29556 11.7877 7.32737C12.3023 7.35919 12.8103 7.19881 13.2134 6.87733C13.6165 6.55585 13.8859 6.09616 13.9693 5.58738C14.0528 5.07859 13.9443 4.55694 13.6651 4.12355C13.3858 3.69016 12.9555 3.37589 12.4577 3.24167C11.9599 3.10745 11.43 3.16283 10.9707 3.39708C10.5114 3.63133 10.1554 4.02776 9.9718 4.50953C9.78816 4.9913 9.78993 5.5241 9.97677 6.00464L7.57583 7.5481C7.28671 7.25123 6.91563 7.04733 6.51002 6.96246C6.10441 6.87759 5.68271 6.9156 5.29882 7.07165C4.91493 7.22769 4.5863 7.49468 4.35494 7.83847C4.12358 8.18226 4 8.58724 4 9.00163C4 9.41602 4.12358 9.821 4.35494 10.1648C4.5863 10.5086 4.91493 10.7756 5.29882 10.9316C5.68271 11.0877 6.10441 11.1257 6.51002 11.0408C6.91563 10.9559 7.28671 10.752 7.57583 10.4552L9.97677 11.9986C9.81603 12.4134 9.7923 12.8688 9.90906 13.298C10.0258 13.7272 10.2769 14.1078 10.6256 14.3841C10.9743 14.6603 11.4023 14.8176 11.8469 14.833C12.2914 14.8484 12.7293 14.7211 13.0962 14.4697C13.4632 14.2183 13.7401 13.856 13.8863 13.4359C14.0325 13.0158 14.0404 12.5599 13.9087 12.1349C13.7771 11.71 13.5129 11.3384 13.1548 11.0745C12.7967 10.8106 12.3635 10.6682 11.9187 10.6683Z" fill="#757F99"/>
</svg>
