<svg width="16" height="14" viewBox="0 0 16 14" fill="none" xmlns="http://www.w3.org/2000/svg">
<path d="M15.0383 12.4752C14.0274 10.8757 12.4086 9.67597 10.4931 9.10678C11.4107 8.60514 12.1238 7.84059 12.5226 6.93056C12.9215 6.02054 12.9842 5.01538 12.7011 4.06945C12.4179 3.12352 11.8046 2.28916 10.9553 1.69449C10.106 1.09983 9.06776 0.777771 7.99995 0.777771C6.93213 0.777771 5.89384 1.09983 5.04456 1.69449C4.19527 2.28916 3.58196 3.12352 3.29882 4.06945C3.01567 5.01538 3.07836 6.02054 3.47725 6.93056C3.87614 7.84059 4.58917 8.60514 5.50683 9.10678C3.59138 9.67596 1.97258 10.8756 0.961727 12.4751C0.914079 12.5508 0.888957 12.6366 0.888889 12.724C0.888821 12.8114 0.913809 12.8973 0.961339 12.973C1.00887 13.0488 1.07726 13.1116 1.15965 13.1554C1.24203 13.1991 1.33549 13.2221 1.43062 13.2221L14.5694 13.2222C14.6645 13.2222 14.758 13.1992 14.8404 13.1555C14.9227 13.1118 14.9911 13.0489 15.0387 12.9732C15.0862 12.8974 15.1112 12.8116 15.1111 12.7242C15.111 12.6367 15.0859 12.5509 15.0383 12.4752Z" fill="#4627A0"/>
</svg>
