<svg width="18" height="18" viewBox="0 0 18 18" fill="none" xmlns="http://www.w3.org/2000/svg">
<path d="M14.226 14.0238H8.08305L13.1066 9.00001L13.1069 8.99974L13.1071 8.99945L14.714 7.39251C14.8047 7.30187 14.8766 7.19425 14.9257 7.07581C14.9747 6.95737 15 6.83042 15 6.70222C15 6.57402 14.9748 6.44707 14.9257 6.32862C14.8766 6.21017 14.8047 6.10255 14.7141 6.0119L11.9877 3.28537C11.8045 3.10261 11.5562 2.99999 11.2974 3C11.0386 3.00001 10.7904 3.10266 10.6072 3.28543L3.28587 10.6071C3.19108 10.7018 3.11688 10.8152 3.06794 10.94C3.06292 10.9522 3.05869 10.9646 3.0547 10.977C3.01869 11.08 3.0002 11.1882 3 11.2973V14.0238C3.0003 14.2826 3.10324 14.5307 3.28624 14.7137C3.46925 14.8968 3.71737 14.9997 3.97617 15H14.226C14.3554 15 14.4796 14.9486 14.5711 14.857C14.6626 14.7655 14.7141 14.6413 14.7141 14.5119C14.7141 14.3824 14.6626 14.2583 14.5711 14.1667C14.4796 14.0752 14.3554 14.0238 14.226 14.0238ZM11.2975 3.9757L14.0238 6.70218L12.7617 7.96427L10.0354 5.23786L11.2975 3.9757Z" fill="#757F99"/>
</svg>
