<svg width="14" height="14" viewBox="0 0 14 14" fill="none" xmlns="http://www.w3.org/2000/svg">
<path fill-rule="evenodd" clip-rule="evenodd" d="M7.00005 13.2223C10.4365 13.2223 13.2223 10.4365 13.2223 7.00005C13.2223 3.56362 10.4365 0.777832 7.00005 0.777832C3.56362 0.777832 0.777832 3.56362 0.777832 7.00005C0.777832 10.4365 3.56362 13.2223 7.00005 13.2223ZM7.00005 3.4445C7.25619 3.4445 7.46382 3.65213 7.46382 3.90827L7.46382 6.53629H10.0918C10.348 6.53629 10.5556 6.74392 10.5556 7.00005C10.5556 7.25619 10.348 7.46382 10.0918 7.46382H7.46382V10.0918C7.46382 10.348 7.25619 10.5556 7.00005 10.5556C6.74392 10.5556 6.53629 10.348 6.53629 10.0918V7.46382L3.90827 7.46382C3.65213 7.46382 3.4445 7.25619 3.4445 7.00005C3.4445 6.74392 3.65213 6.53629 3.90827 6.53629L6.53629 6.53629L6.53629 3.90827C6.53629 3.65213 6.74392 3.4445 7.00005 3.4445Z" fill="#757F99"/>
</svg>
