<svg width="18" height="18" viewBox="0 0 18 18" fill="none" xmlns="http://www.w3.org/2000/svg">
<path fill-rule="evenodd" clip-rule="evenodd" d="M12.8216 11.9024C13.5596 10.9663 14 9.78457 14 8.5C14 5.46243 11.5376 3 8.5 3C5.46243 3 3 5.46243 3 8.5C3 11.5376 5.46243 14 8.5 14C9.78455 14 10.9662 13.5596 11.9024 12.8216L13.8946 14.8138C14.1484 15.0677 14.56 15.0677 14.8138 14.8138C15.0677 14.56 15.0677 14.1484 14.8138 13.8946L12.8216 11.9024ZM6 8C5.72386 8 5.5 8.22386 5.5 8.5C5.5 8.77614 5.72386 9 6 9H8V11C8 11.2761 8.22386 11.5 8.5 11.5C8.77614 11.5 9 11.2761 9 11V9H11C11.2761 9 11.5 8.77614 11.5 8.5C11.5 8.22386 11.2761 8 11 8H9V6C9 5.72386 8.77614 5.5 8.5 5.5C8.22386 5.5 8 5.72386 8 6V8H6Z" fill="#757F99"/>
</svg>
