<svg width="16" height="14" viewBox="0 0 16 14" fill="none" xmlns="http://www.w3.org/2000/svg">
<path d="M15.0383 12.4753C14.0274 10.8758 12.4086 9.67603 10.4931 9.10684C11.4107 8.6052 12.1238 7.84065 12.5227 6.93063C12.9216 6.0206 12.9842 5.01544 12.7011 4.06951C12.418 3.12359 11.8046 2.28922 10.9554 1.69456C10.1061 1.0999 9.06779 0.777832 7.99997 0.777832C6.93216 0.777832 5.89387 1.0999 5.04459 1.69456C4.1953 2.28922 3.58199 3.12359 3.29884 4.06951C3.0157 5.01544 3.07839 6.0206 3.47728 6.93063C3.87617 7.84065 4.5892 8.6052 5.50686 9.10684C3.59141 9.67602 1.97261 10.8757 0.961753 12.4752C0.914106 12.5508 0.888984 12.6367 0.888916 12.7241C0.888848 12.8115 0.913836 12.8974 0.961366 12.9731C1.0089 13.0488 1.07729 13.1117 1.15967 13.1554C1.24205 13.1991 1.33551 13.2222 1.43065 13.2222L14.5694 13.2223C14.6645 13.2223 14.758 13.1993 14.8404 13.1555C14.9228 13.1118 14.9912 13.0489 15.0387 12.9732C15.0862 12.8975 15.1112 12.8116 15.1111 12.7242C15.1111 12.6368 15.0859 12.551 15.0383 12.4753Z" fill="#757F99"/>
</svg>
