<svg width="18" height="18" viewBox="0 0 18 18" fill="none" xmlns="http://www.w3.org/2000/svg">
<path d="M13.9995 2.99951H12.4995V2.49951C12.4995 2.3669 12.4468 2.23973 12.3531 2.14596C12.2593 2.05219 12.1321 1.99951 11.9995 1.99951C11.8669 1.99951 11.7397 2.05219 11.646 2.14596C11.5522 2.23973 11.4995 2.3669 11.4995 2.49951V2.99951H6.49951V2.49951C6.49951 2.3669 6.44683 2.23973 6.35307 2.14596C6.2593 2.05219 6.13212 1.99951 5.99951 1.99951C5.8669 1.99951 5.73973 2.05219 5.64596 2.14596C5.55219 2.23973 5.49951 2.3669 5.49951 2.49951V2.99951H3.99951C3.73438 2.99977 3.48017 3.10521 3.29269 3.29269C3.10521 3.48017 2.99977 3.73438 2.99951 3.99951V13.9995C2.99977 14.2646 3.10521 14.5189 3.29269 14.7063C3.48017 14.8938 3.73438 14.9993 3.99951 14.9995H13.9995C14.2646 14.9993 14.5188 14.8938 14.7063 14.7063C14.8938 14.5189 14.9993 14.2646 14.9995 13.9995V3.99951C14.9993 3.73438 14.8938 3.48017 14.7063 3.29269C14.5188 3.10521 14.2646 2.99977 13.9995 2.99951ZM13.9995 5.99951H3.99951V3.99951H5.49951V4.49951C5.49951 4.63212 5.55219 4.7593 5.64596 4.85307C5.73973 4.94683 5.8669 4.99951 5.99951 4.99951C6.13212 4.99951 6.2593 4.94683 6.35307 4.85307C6.44683 4.7593 6.49951 4.63212 6.49951 4.49951V3.99951H11.4995V4.49951C11.4995 4.63212 11.5522 4.7593 11.646 4.85307C11.7397 4.94683 11.8669 4.99951 11.9995 4.99951C12.1321 4.99951 12.2593 4.94683 12.3531 4.85307C12.4468 4.7593 12.4995 4.63212 12.4995 4.49951V3.99951H13.9995V5.99951Z" fill="#757F99"/>
<rect x="5" y="8" width="8" height="1" rx="0.5" fill="white"/>
</svg>
