<svg width="18" height="18" viewBox="0 0 18 18" fill="none" xmlns="http://www.w3.org/2000/svg">
<path d="M14.706 8.46859L14.706 8.4686C14.6941 8.47115 14.6803 8.47317 14.6749 8.47395C14.674 8.47408 14.6734 8.47417 14.673 8.47423L14.706 8.46859ZM14.706 8.46859C14.7174 8.46615 14.7311 8.46222 14.7353 8.46101C14.7359 8.46084 14.7363 8.46072 14.7365 8.46067L14.706 8.46859ZM14.9287 8.36854L14.9286 8.36858C14.9187 8.37578 14.9074 8.38291 14.9022 8.38624C14.9013 8.38677 14.9007 8.38721 14.9002 8.38753C14.9001 8.38756 14.9001 8.3876 14.9 8.38763L14.8926 8.39251C14.889 8.39489 14.8835 8.39842 14.8771 8.40212L14.9287 8.36854ZM14.9287 8.36854C14.935 8.36397 14.9403 8.35966 14.9439 8.35672L14.9516 8.35041M14.9287 8.36854L14.9516 8.35041M14.9516 8.35041L14.9516 8.3504L14.9522 8.34997C14.955 8.34776 14.9675 8.33808 14.9764 8.33009C14.9765 8.33005 14.9765 8.33001 14.9765 8.32998L14.9516 8.35041ZM14.85 8.41651C14.8491 8.41697 14.8484 8.41734 14.8479 8.4176L14.7799 8.28387C14.7781 8.28479 14.7763 8.28573 14.7745 8.28666L14.85 8.41651ZM14.85 8.41651C14.8553 8.41385 14.8668 8.4081 14.8771 8.40216L14.85 8.41651ZM14.665 8.47559L14.6729 8.47424L14.665 8.47559ZM15.1381 8.105C15.1385 8.10392 15.1389 8.10299 15.1393 8.10223L15.1112 8.15969C15.1118 8.15856 15.1123 8.15761 15.1127 8.15689L15.1128 8.1568L15.1169 8.14945C15.1189 8.14587 15.1219 8.14038 15.125 8.13402L15.1251 8.13382C15.1304 8.12306 15.1354 8.11143 15.1381 8.105ZM15.1922 7.89479C15.1942 7.87362 15.1952 7.85237 15.1952 7.83112V4.83008C15.1952 4.66142 15.1336 4.49745 15.0205 4.37474C14.9071 4.25162 14.7505 4.17986 14.5844 4.17986C14.4182 4.17986 14.2616 4.25162 14.1482 4.37474C14.0352 4.49745 13.9735 4.66142 13.9735 4.83008V6.23951L13.0655 5.25377L13.0654 5.25365C12.0005 4.10036 10.555 3.4501 9.04507 3.4501C7.53514 3.4501 6.08962 4.10036 5.02477 5.25365L5.02465 5.25377C4.91161 5.37649 4.85 5.54047 4.85 5.70914C4.85 5.87781 4.91161 6.04179 5.02465 6.1645C5.13808 6.28763 5.29467 6.3594 5.46084 6.3594C5.62694 6.3594 5.78349 6.28768 5.89691 6.16462C6.73474 5.25711 7.86723 4.75003 9.04507 4.75003C10.2229 4.75003 11.3554 5.25711 12.1932 6.16462L13.1297 7.18121H11.8195C11.6534 7.18121 11.4968 7.25297 11.3834 7.37609C11.2703 7.49879 11.2087 7.66277 11.2087 7.83143C11.2087 8.00009 11.2703 8.16407 11.3834 8.28677C11.4968 8.40989 11.6534 8.48166 11.8195 8.48166H14.5844C14.6053 8.48166 14.6257 8.48045 14.6457 8.47832L15.1922 7.89479ZM15.0601 8.23929C15.0673 8.22983 15.0753 8.21775 15.0783 8.21322C15.0788 8.21246 15.0792 8.2119 15.0793 8.21162L15.0847 8.20392C15.0872 8.20025 15.091 8.19478 15.0949 8.18839L15.0601 8.23929Z" fill="#757F99" stroke="#757F99" stroke-width="0.3"/>
<path d="M12.1482 11.7671C12.1485 11.7668 12.1488 11.7665 12.1491 11.7662L12.1928 11.7189H12.1979C12.2426 11.6801 12.2925 11.6479 12.3465 11.6236C12.4215 11.5899 12.5023 11.5724 12.5843 11.5724C12.6663 11.5724 12.7472 11.5899 12.8222 11.6236C12.8971 11.6573 12.9644 11.7064 13.0205 11.7673C13.0766 11.8281 13.1205 11.8997 13.1502 11.9777C13.18 12.0557 13.1952 12.1389 13.1952 12.2226C13.1952 12.3064 13.18 12.3896 13.1502 12.4675C13.1205 12.5455 13.0766 12.6171 13.0205 12.678L13.0204 12.6781C11.9555 13.8314 10.51 14.4817 9.00009 14.4817C7.49016 14.4817 6.04463 13.8314 4.97979 12.6781L4.97967 12.678L4.07161 11.6922V13.1017C4.07161 13.2703 4.01 13.4343 3.89697 13.557C3.78355 13.6801 3.62696 13.7519 3.46081 13.7519C3.29465 13.7519 3.13806 13.6801 3.02464 13.557C2.91161 13.4343 2.85 13.2703 2.85 13.1017V10.1006V10.1006L12.1482 11.7671ZM12.1482 11.7671C11.3104 12.6746 10.1779 13.1817 9.00009 13.1817C7.8223 13.1817 6.68986 12.6747 5.85203 11.7672C5.852 11.7672 5.85196 11.7672 5.85192 11.7671L4.91545 10.7505M12.1482 11.7671L4.91545 10.7505M4.91545 10.7505H6.22563C6.39179 10.7505 6.54838 10.6788 6.6618 10.5557C6.77483 10.433 6.83644 10.269 6.83644 10.1003C6.83644 9.93166 6.77483 9.76769 6.6618 9.64498C6.54838 9.52186 6.39179 9.4501 6.22563 9.4501H3.4608L4.91545 10.7505ZM3.368 9.45821L3.36801 9.45821C3.36802 9.4582 3.36808 9.45819 3.3682 9.45817C3.37017 9.45782 3.38706 9.45476 3.39978 9.45341L3.368 9.45821ZM3.368 9.45821L3.35869 9.45962M3.368 9.45821L3.35869 9.45962M3.30615 9.47177L3.30617 9.47177C3.30669 9.47162 3.30747 9.4714 3.30847 9.47111C3.31428 9.46945 3.32737 9.46571 3.33946 9.46311L3.30615 9.47177ZM3.30615 9.47177L3.29799 9.47394C3.29393 9.47503 3.28767 9.47675 3.28063 9.47905L3.28044 9.47911M3.30615 9.47177L3.28044 9.47911M3.28044 9.47911C3.26919 9.4828 3.25709 9.48765 3.25161 9.48985C3.25067 9.49023 3.24993 9.49053 3.24941 9.49073L3.30425 9.63033L3.24958 9.49066C3.24955 9.49067 3.24945 9.49071 3.24928 9.49078C3.24706 9.49161 3.2332 9.49681 3.22311 9.50134L3.22298 9.5014M3.28044 9.47911L3.22298 9.5014M3.22298 9.5014C3.21303 9.50588 3.20142 9.51198 3.19724 9.51418C3.19657 9.51453 3.19609 9.51478 3.19584 9.51491L3.26433 9.64836L3.19598 9.51484C3.19566 9.515 3.1951 9.51528 3.19434 9.51566C3.18978 9.51794 3.178 9.52384 3.16822 9.52952L3.1682 9.52953M3.22298 9.5014L3.1682 9.52953M3.1682 9.52953C3.16174 9.53329 3.15618 9.53687 3.15239 9.53935M3.1682 9.52953L3.15239 9.53935M3.06866 9.60173L3.06875 9.60165C3.07765 9.59372 3.09029 9.58388 3.09273 9.58198C3.09296 9.5818 3.0931 9.58169 3.09314 9.58166L3.18706 9.69861L3.09294 9.58182C3.09297 9.5818 3.09306 9.58172 3.09323 9.58158C3.09522 9.57992 3.10729 9.5699 3.11664 9.56311L3.06866 9.60173ZM3.06866 9.60173C3.05652 9.61256 3.04558 9.62379 3.03849 9.63107C3.03801 9.63156 3.03755 9.63203 3.03711 9.63249C3.03777 9.63181 3.03823 9.63137 3.03831 9.63129M3.06866 9.60173L3.02462 9.64496M3.02462 9.64496L3.02474 9.64482C3.0299 9.63923 3.03465 9.63475 3.03652 9.63298C3.03657 9.63294 3.03661 9.63289 3.03666 9.63285L3.03831 9.63129M3.02462 9.64496C3.01936 9.65067 3.01517 9.65589 3.01346 9.65801M3.02462 9.64496L3.01346 9.65801M3.03831 9.63129L3.03831 9.63129L3.03831 9.63129ZM2.93239 9.77496L2.93244 9.77486C2.93283 9.77414 2.93334 9.7732 2.93394 9.77207L2.93239 9.77496ZM2.93239 9.77496L2.92829 9.78231C2.92629 9.78589 2.92327 9.79138 2.92012 9.79774L2.92012 9.79774M2.93239 9.77496L2.92012 9.79774M2.92012 9.79774L2.92003 9.79794M2.92012 9.79774L2.92003 9.79794M2.92003 9.79794C2.91472 9.80869 2.90979 9.82033 2.90706 9.82676C2.90658 9.8279 2.90616 9.82888 2.90582 9.82967L3.04364 9.88886L2.90589 9.82952C2.90587 9.82956 2.9058 9.82972 2.90568 9.82998C2.90451 9.8326 2.89874 9.84554 2.89514 9.85492L2.89514 9.85492M2.92003 9.79794L2.89514 9.85492M2.89514 9.85492L2.89498 9.85533M2.89514 9.85492L2.89498 9.85533M2.89498 9.85533C2.89105 9.86567 2.88732 9.8773 2.8854 9.88329C2.88503 9.88445 2.88473 9.8854 2.88451 9.88609L3.02708 9.93269L2.88453 9.88602C2.88445 9.88624 2.88429 9.88674 2.88404 9.88746C2.88256 9.89183 2.87827 9.90447 2.87546 9.91451L2.87545 9.91456M2.89498 9.85533L2.87545 9.91456M2.87545 9.91456C2.87251 9.92508 2.86974 9.93765 2.86849 9.94331C2.86825 9.9444 2.86806 9.94524 2.86794 9.94575L2.86791 9.94588M2.87545 9.91456L2.86791 9.94588M2.86791 9.94588C2.86788 9.94603 2.86778 9.94643 2.86764 9.94703C2.86664 9.95115 2.86332 9.96492 2.86141 9.97536L2.86139 9.97547M2.86791 9.94588L2.86139 9.97547M2.86139 9.97547C2.85913 9.98785 2.85751 10.0009 2.85658 10.0085C2.85642 10.0098 2.85627 10.011 2.85615 10.0119L2.85614 10.012M2.86139 9.97547L2.85614 10.012M2.85614 10.012L2.85508 10.0194M2.85614 10.012L2.85508 10.0194M3.35869 9.45962C3.35416 9.46032 3.3473 9.46142 3.33957 9.46309L3.35869 9.45962ZM3.15239 9.53935L3.14422 9.54473M3.15239 9.53935L3.14422 9.54473M3.14422 9.54473C3.1438 9.545 3.14318 9.5454 3.14239 9.54589C3.13753 9.54898 3.12628 9.55611 3.1167 9.56306L3.14422 9.54473ZM3.01346 9.65801L3.01336 9.65815M3.01346 9.65801L3.01336 9.65815M3.01336 9.65815L3.01194 9.6599M3.01336 9.65815L3.01194 9.6599M3.01194 9.6599C3.01162 9.66028 3.01128 9.66067 3.01093 9.66107C3.00455 9.6684 2.99459 9.67986 2.98509 9.6924L3.01194 9.6599ZM2.85508 10.0194C2.85451 10.0233 2.8536 10.0297 2.85293 10.0372L2.85508 10.0194ZM3.44459 9.45076C3.43266 9.45106 3.41683 9.45161 3.3999 9.4534L3.44459 9.45076ZM2.98504 9.69246C2.97789 9.70191 2.9699 9.71397 2.96689 9.71851C2.96637 9.71929 2.966 9.71984 2.96581 9.72013L2.96047 9.72782L2.98504 9.69246Z" fill="#757F99" stroke="#757F99" stroke-width="0.3"/>
</svg>
