<svg width="18" height="18" viewBox="0 0 18 18" fill="none" xmlns="http://www.w3.org/2000/svg">
<path d="M14.9472 5.27637L13.9472 3.27637C13.9057 3.19332 13.8418 3.12348 13.7629 3.07466C13.6839 3.02585 13.5929 3 13.5 3H4.5C4.40715 3 4.31613 3.02585 4.23714 3.07466C4.15816 3.12348 4.09432 3.19332 4.0528 3.27637L3.0528 5.27637C3.01807 5.3458 3 5.42237 3 5.5V14C3.0003 14.2651 3.10576 14.5193 3.29323 14.7068C3.4807 14.8942 3.73488 14.9997 4 15H14C14.2651 14.9997 14.5193 14.8942 14.7068 14.7068C14.8942 14.5193 14.9997 14.2651 15 14V5.5C15 5.42237 14.9819 5.3458 14.9472 5.27637ZM11.4749 10.7322L9.35358 12.8536C9.35019 12.857 9.34644 12.8599 9.34299 12.8632C9.33466 12.871 9.32635 12.8789 9.31747 12.8862C9.31329 12.8897 9.30881 12.8926 9.30454 12.8959C9.29584 12.9026 9.28723 12.9094 9.27811 12.9155C9.2746 12.9178 9.27085 12.9198 9.26727 12.9221C9.25705 12.9286 9.24677 12.935 9.23606 12.9407C9.2334 12.9422 9.23062 12.9433 9.22794 12.9446C9.2161 12.9507 9.2041 12.9566 9.19171 12.9618C9.18994 12.9625 9.18805 12.963 9.18625 12.9638C9.17298 12.9691 9.15955 12.9741 9.14572 12.9783C9.14389 12.9789 9.142 12.9792 9.14017 12.9797C9.12644 12.9837 9.11258 12.9874 9.09842 12.9902C9.09433 12.991 9.09012 12.9914 9.086 12.9921C9.07407 12.9942 9.06213 12.9963 9.04993 12.9975C9.01673 13.0008 8.98327 13.0008 8.95007 12.9975C8.93787 12.9963 8.92593 12.9942 8.914 12.9921C8.90988 12.9914 8.90567 12.991 8.90158 12.9902C8.88742 12.9874 8.87357 12.9837 8.85983 12.9797C8.858 12.9792 8.85611 12.9789 8.85428 12.9783C8.84042 12.9741 8.8269 12.9691 8.8136 12.9637C8.81186 12.963 8.81003 12.9625 8.80828 12.9618C8.79589 12.9566 8.7839 12.9507 8.77203 12.9446C8.76937 12.9433 8.7666 12.9422 8.76394 12.9407C8.75323 12.935 8.74295 12.9286 8.73272 12.9221C8.72915 12.9198 8.7254 12.9178 8.72189 12.9155C8.71276 12.9094 8.70416 12.9026 8.69546 12.8959C8.69119 12.8926 8.6867 12.8897 8.68252 12.8862C8.67389 12.8792 8.66583 12.8714 8.65768 12.8638C8.65399 12.8603 8.65002 12.8572 8.64642 12.8536L6.52512 10.7322C6.43134 10.6385 6.37866 10.5113 6.37866 10.3787C6.37865 10.2461 6.43133 10.1189 6.5251 10.0251C6.61887 9.93133 6.74605 9.87864 6.87867 9.87864C7.01128 9.87864 7.13847 9.93131 7.23224 10.0251L8.5 11.2929V7.5C8.5 7.36739 8.55268 7.24021 8.64645 7.14645C8.74021 7.05268 8.86739 7 9 7C9.13261 7 9.25979 7.05268 9.35355 7.14645C9.44732 7.24021 9.5 7.36739 9.5 7.5V11.2929L10.7678 10.0251C10.8142 9.97865 10.8693 9.94182 10.93 9.91669C10.9906 9.89157 11.0557 9.87864 11.1213 9.87864C11.187 9.87864 11.252 9.89157 11.3127 9.9167C11.3733 9.94183 11.4285 9.97866 11.4749 10.0251C11.5213 10.0715 11.5582 10.1267 11.5833 10.1873C11.6084 10.248 11.6213 10.313 11.6213 10.3787C11.6213 10.4443 11.6084 10.5094 11.5833 10.57C11.5582 10.6307 11.5213 10.6858 11.4749 10.7322L11.4749 10.7322ZM4.30902 5L4.80902 4H13.191L13.691 5H4.30902Z" fill="#757F99"/>
</svg>
