<svg width="22" height="23" viewBox="0 0 22 23" fill="none" xmlns="http://www.w3.org/2000/svg">
<path fill-rule="evenodd" clip-rule="evenodd" d="M0 1V8.33333C0 18.8353 8.91325 22.3146 10.693 22.9047C10.8919 22.9731 11.1081 22.9731 11.307 22.9047C13.0868 22.3146 22 18.8353 22 8.33333V1C22 0.734784 21.8946 0.48043 21.7071 0.292893C21.5196 0.105357 21.2652 0 21 0H1C0.734784 0 0.48043 0.105357 0.292893 0.292893C0.105357 0.48043 0 0.734784 0 1ZM13.4994 9.62545C14.1208 9.62545 14.6244 9.12177 14.6244 8.50045C14.6244 7.87913 14.1208 7.37545 13.4994 7.37545H8.49945C7.87813 7.37545 7.37445 7.87913 7.37445 8.50045C7.37445 9.12177 7.87813 9.62545 8.49945 9.62545H13.4994Z" fill="white"/>
</svg>
