<svg width="22" height="23" viewBox="0 0 22 23" fill="none" xmlns="http://www.w3.org/2000/svg">
<path fill-rule="evenodd" clip-rule="evenodd" d="M0 1V8.33333C0 18.8353 8.91325 22.3146 10.693 22.9047C10.8919 22.9731 11.1081 22.9731 11.307 22.9047C13.0868 22.3146 22 18.8353 22 8.33333V1C22 0.734784 21.8946 0.48043 21.7071 0.292893C21.5196 0.105357 21.2652 0 21 0H1C0.734784 0 0.48043 0.105357 0.292893 0.292893C0.105357 0.48043 0 0.734784 0 1ZM16.6138 7.77997C17.0133 7.39863 17.028 6.76563 16.6466 6.36614C16.2653 5.96664 15.6323 5.95191 15.2328 6.33325L10.1797 11.1567L7.99838 9.07452C7.59889 8.69318 6.96589 8.70789 6.58455 9.10739C6.20321 9.50688 6.21793 10.1399 6.61742 10.5212L9.48918 13.2625C9.87561 13.6313 10.4837 13.6313 10.8701 13.2625L16.6138 7.77997Z" fill="white"/>
</svg>
