<svg width="18" height="18" viewBox="0 0 18 18" fill="none" xmlns="http://www.w3.org/2000/svg">
<path d="M3.24778 8.77049L8.77032 3.24798C8.86869 3.14933 8.98995 3.07658 9.12328 3.03621C9.25661 2.99584 9.39786 2.98911 9.53442 3.01661L13.7988 3.86947C13.8807 3.88586 13.9558 3.92612 14.0149 3.98516C14.0739 4.0442 14.1142 4.11939 14.1306 4.20126L14.9834 8.4656C15.0109 8.60217 15.0041 8.7434 14.9638 8.87673C14.9234 9.01005 14.8507 9.13131 14.7521 9.2297L9.22959 14.7522C9.15104 14.8307 9.05778 14.8931 8.95514 14.9356C8.8525 14.9781 8.74249 15 8.63139 15C8.52029 15 8.41027 14.9781 8.30763 14.9356C8.20499 14.8931 8.11172 14.8308 8.03316 14.7522L3.24784 9.96691C3.16927 9.88836 3.10694 9.7951 3.06442 9.69246C3.02189 9.58982 3.00001 9.47981 3 9.36871C3 9.25761 3.02188 9.1476 3.06439 9.04495C3.1069 8.94231 3.16922 8.84905 3.24778 8.77049ZM11.496 7.13876C11.6215 7.13876 11.7442 7.10155 11.8485 7.03184C11.9529 6.96212 12.0342 6.86303 12.0822 6.7471C12.1302 6.63117 12.1428 6.5036 12.1183 6.38053C12.0938 6.25746 12.0334 6.14441 11.9447 6.05568C11.8559 5.96695 11.7429 5.90652 11.6198 5.88204C11.4967 5.85756 11.3692 5.87013 11.2532 5.91815C11.1373 5.96617 11.0382 6.04749 10.9685 6.15182C10.8988 6.25616 10.8616 6.37882 10.8616 6.50431C10.8616 6.67257 10.9284 6.83395 11.0474 6.95293C11.1664 7.07192 11.3278 7.13876 11.496 7.13876Z" fill="#757F99"/>
</svg>
