<svg width="16" height="16" viewBox="0 0 16 16" fill="none" xmlns="http://www.w3.org/2000/svg">
<path d="M11.1116 9.77768C10.8152 9.77758 10.5218 9.837 10.2488 9.95242C9.97572 10.0678 9.72861 10.2369 9.52209 10.4496L6.96162 8.80296C7.16272 8.28625 7.16272 7.71286 6.96162 7.19614L9.52209 5.54947C9.90645 5.94281 10.4231 6.17938 10.9719 6.21333C11.5207 6.24727 12.0626 6.07617 12.4924 5.73319C12.9223 5.39021 13.2096 4.89978 13.2986 4.35696C13.3875 3.81415 13.2719 3.25761 12.9741 2.79524C12.6762 2.33286 12.2174 1.99758 11.6865 1.85438C11.1556 1.71118 10.5905 1.77026 10.1007 2.02018C9.61086 2.27009 9.23123 2.69304 9.03539 3.20703C8.83955 3.72102 8.84143 4.28945 9.04069 4.80213L6.4802 6.44882C6.17187 6.13209 5.77612 5.91455 5.34356 5.82401C4.911 5.73346 4.46128 5.77402 4.05188 5.9405C3.64248 6.10698 3.29201 6.39182 3.04528 6.7586C2.79854 7.12539 2.66675 7.55745 2.66675 7.99955C2.66675 8.44166 2.79854 8.87372 3.04528 9.2405C3.29201 9.60728 3.64248 9.89212 4.05188 10.0586C4.46128 10.2251 4.911 10.2656 5.34356 10.1751C5.77612 10.0846 6.17187 9.86701 6.4802 9.55029L9.04069 11.197C8.86927 11.6395 8.84396 12.1253 8.96848 12.5833C9.09299 13.0412 9.36079 13.4473 9.73265 13.742C10.1045 14.0366 10.5609 14.2045 11.035 14.2209C11.5092 14.2374 11.9761 14.1016 12.3675 13.8333C12.7588 13.5651 13.0541 13.1786 13.21 12.7304C13.3659 12.2821 13.3743 11.7957 13.2339 11.3424C13.0936 10.8891 12.8118 10.4926 12.4299 10.211C12.048 9.92946 11.586 9.7776 11.1116 9.77768Z" fill="#5933C6"/>
</svg>
