<svg width="16" height="16" viewBox="0 0 16 16" fill="none" xmlns="http://www.w3.org/2000/svg">
<path fill-rule="evenodd" clip-rule="evenodd" d="M2.5 8C2.5 11.0376 4.96243 13.5 8 13.5C11.0376 13.5 13.5 11.0376 13.5 8C13.5 4.96243 11.0376 2.5 8 2.5C4.96243 2.5 2.5 4.96243 2.5 8ZM5.87865 5.9141C6.07392 5.71884 6.3905 5.71884 6.58576 5.9141L8 7.32834L9.41424 5.9141C9.6095 5.71884 9.92608 5.71884 10.1213 5.9141C10.3166 6.10937 10.3166 6.42595 10.1213 6.62121L8.70711 8.03545L10.1213 9.44964C10.3166 9.6449 10.3166 9.96148 10.1213 10.1567C9.92603 10.352 9.60945 10.352 9.41419 10.1567L8 8.74256L6.58581 10.1567C6.39055 10.352 6.07397 10.352 5.87871 10.1567C5.68344 9.96148 5.68344 9.6449 5.87871 9.44964L7.29289 8.03545L5.87865 6.62121C5.68339 6.42595 5.68339 6.10937 5.87865 5.9141Z" fill="#757F99"/>
</svg>
