<svg width="18" height="18" viewBox="0 0 18 18" fill="none" xmlns="http://www.w3.org/2000/svg">
<path d="M14.5 5.07146H9.16875L7.43125 3.70956C7.25903 3.57182 7.04792 3.49809 6.83125 3.50004H3.5C3.23478 3.50004 2.98043 3.61041 2.79289 3.80688C2.60536 4.00334 2.5 4.26981 2.5 4.54765V13.4524C2.5 13.7302 2.60536 13.9967 2.79289 14.1932C2.98043 14.3896 3.23478 14.5 3.5 14.5H14.5562C14.806 14.4983 15.0451 14.3936 15.2218 14.2085C15.3984 14.0235 15.4984 13.773 15.5 13.5113V6.11908C15.5 5.84123 15.3946 5.57477 15.2071 5.3783C15.0196 5.18183 14.7652 5.07146 14.5 5.07146Z" fill="#757F99"/>
</svg>
