<svg width="18" height="18" viewBox="0 0 18 18" fill="none" xmlns="http://www.w3.org/2000/svg">
<path fill-rule="evenodd" clip-rule="evenodd" d="M7.91304 0.913043C7.91304 0.408783 7.50426 0 7 0C6.49574 0 6.08696 0.408783 6.08696 0.913043V6.08696H0.913043C0.408783 6.08696 0 6.49574 0 7C0 7.50426 0.408783 7.91304 0.913043 7.91304H6.08696V13.087C6.08696 13.5912 6.49574 14 7 14C7.50426 14 7.91304 13.5912 7.91304 13.087V7.91304H13.087C13.5912 7.91304 14 7.50426 14 7C14 6.49574 13.5912 6.08696 13.087 6.08696H7.91304V0.913043Z" fill="#757F99"/>
</svg>
