<svg width="14" height="14" viewBox="0 0 13 13" fill="none" xmlns="http://www.w3.org/2000/svg">
    <path d="M10.8148 0.222234H9.61112C9.54727 0.222234 9.48604 0.247598 9.44089 0.292745C9.39574 0.337893 9.37038 0.399126 9.37038 0.462975V3.11112C9.37038 3.36652 9.26892 3.61145 9.08833 3.79204C8.90774 3.97263 8.66281 4.07408 8.40742 4.07408H3.60885C3.48439 4.07606 3.36381 4.03077 3.27144 3.94733C3.17906 3.86389 3.12177 3.74852 3.11112 3.6245C3.10675 3.55864 3.11596 3.49258 3.13819 3.43044C3.16043 3.36829 3.1952 3.31137 3.24035 3.26323C3.2855 3.21508 3.34007 3.17674 3.40067 3.15057C3.46127 3.1244 3.5266 3.11098 3.5926 3.11112H8.16667C8.23052 3.11112 8.29176 3.08576 8.3369 3.04061C8.38205 2.99546 8.40742 2.93423 8.40742 2.87038V0.462975C8.40742 0.399126 8.38205 0.337893 8.3369 0.292745C8.29176 0.247598 8.23052 0.222234 8.16667 0.222234H3.79182C3.66531 0.22183 3.53999 0.246576 3.42313 0.295033C3.30628 0.343491 3.20022 0.414694 3.11112 0.504502L0.504502 3.11112C0.414694 3.20022 0.343491 3.30628 0.295033 3.42313C0.246576 3.53999 0.22183 3.66531 0.222234 3.79182V10.8148C0.222234 11.0702 0.323689 11.3151 0.504279 11.4957C0.68487 11.6763 0.929803 11.7778 1.1852 11.7778H10.8148C11.0702 11.7778 11.3151 11.6763 11.4957 11.4957C11.6763 11.3151 11.7778 11.0702 11.7778 10.8148V1.1852C11.7778 0.929803 11.6763 0.68487 11.4957 0.504279C11.3151 0.323689 11.0702 0.222234 10.8148 0.222234ZM6.00001 9.37038C5.6191 9.37038 5.24674 9.25742 4.93002 9.0458C4.61331 8.83418 4.36646 8.53339 4.22069 8.18147C4.07492 7.82956 4.03678 7.44232 4.11109 7.06872C4.1854 6.69513 4.36883 6.35196 4.63817 6.08262C4.90752 5.81327 5.25069 5.62985 5.62428 5.55553C5.99787 5.48122 6.38511 5.51936 6.73703 5.66513C7.08895 5.8109 7.38973 6.05775 7.60136 6.37447C7.81298 6.69118 7.92593 7.06354 7.92593 7.44445C7.92593 7.95524 7.72302 8.44511 7.36184 8.80629C7.00066 9.16747 6.5108 9.37038 6.00001 9.37038Z" fill="#757F99"/>
</svg>
