<svg width="16" height="16" viewBox="0 0 14 14" fill="none" xmlns="http://www.w3.org/2000/svg">
<path d="M10.44 6.47249C10.44 8.69547 8.63796 10.4976 6.41497 10.4976C4.19198 10.4976 2.38989 8.69547 2.38989 6.47249C2.38989 4.2495 4.19198 2.44741 6.41497 2.44741C8.63796 2.44741 10.44 4.2495 10.44 6.47249Z" fill="#757F99"/>
<path fill-rule="evenodd" clip-rule="evenodd" d="M12.8301 6.41504C12.8301 7.91331 12.3164 9.29161 11.4556 10.3835L13.7779 12.7058C14.074 13.0018 14.074 13.4819 13.7779 13.7779C13.4819 14.074 13.0018 14.074 12.7058 13.7779L10.3835 11.4556C9.29161 12.3164 7.91331 12.8301 6.41504 12.8301C2.87211 12.8301 0 9.95797 0 6.41504C0 2.87211 2.87211 0 6.41504 0C9.95797 0 12.8301 2.87211 12.8301 6.41504ZM11.6064 6.47249C11.6064 9.33964 9.28213 11.6639 6.41497 11.6639C3.54781 11.6639 1.22352 9.33964 1.22352 6.47249C1.22352 3.60533 3.54781 1.28104 6.41497 1.28104C9.28213 1.28104 11.6064 3.60533 11.6064 6.47249Z" fill="#757F99"/>
</svg>
