<svg width="18" height="18" viewBox="0 0 18 18" fill="none" xmlns="http://www.w3.org/2000/svg">
<path d="M3 3.75C3 3.33579 3.28277 3 3.63158 3L4.89474 3C5.24355 3 5.52632 3.33579 5.52632 3.75L5.52632 14.25C5.52632 14.6642 5.24355 15 4.89474 15H3.63158C3.28277 15 3 14.6642 3 14.25L3 3.75Z" fill="#757F99"/>
<path d="M12.4737 3.75C12.4737 3.33579 12.7565 3 13.1053 3L14.3684 3C14.7172 3 15 3.33579 15 3.75L15 14.25C15 14.6642 14.7172 15 14.3684 15H13.1053C12.7565 15 12.4737 14.6642 12.4737 14.25L12.4737 3.75Z" fill="#757F99"/>
<path d="M6.15789 3.75C6.15789 3.33579 6.44066 3 6.78947 3L8.05263 3C8.40144 3 8.68421 3.33579 8.68421 3.75V14.25C8.68421 14.6642 8.40144 15 8.05263 15H6.78947C6.44066 15 6.15789 14.6642 6.15789 14.25L6.15789 3.75Z" fill="#757F99"/>
<path d="M9.31579 3.75C9.31579 3.33579 9.59856 3 9.94737 3L11.2105 3C11.5593 3 11.8421 3.33579 11.8421 3.75V14.25C11.8421 14.6642 11.5593 15 11.2105 15H9.94737C9.59856 15 9.31579 14.6642 9.31579 14.25L9.31579 3.75Z" fill="#757F99"/>
</svg>
