<svg width="18" height="18" viewBox="0 0 18 18" fill="none" xmlns="http://www.w3.org/2000/svg">
<path d="M15.4334 14.2797C14.5094 12.7373 13.0297 11.5804 11.2788 11.0315C12.1176 10.5478 12.7694 9.81057 13.134 8.93305C13.4986 8.05553 13.5559 7.08626 13.2971 6.17412C13.0383 5.26198 12.4777 4.45741 11.7014 3.88398C10.9251 3.31056 9.976 3 8.99995 3C8.0239 3 7.07484 3.31056 6.29854 3.88398C5.52224 4.45741 4.96163 5.26198 4.70282 6.17412C4.44401 7.08626 4.50131 8.05553 4.86592 8.93305C5.23053 9.81057 5.88229 10.5478 6.72109 11.0315C4.97024 11.5804 3.49056 12.7372 2.56658 14.2796C2.52302 14.3525 2.50006 14.4353 2.5 14.5196C2.49994 14.6039 2.52278 14.6867 2.56622 14.7597C2.60967 14.8327 2.67219 14.8934 2.74749 14.9355C2.82279 14.9777 2.90822 14.9999 2.99518 14.9999L15.0048 15C15.0918 15 15.1772 14.9778 15.2525 14.9357C15.3278 14.8935 15.3903 14.8329 15.4338 14.7598C15.4772 14.6868 15.5001 14.604 15.5 14.5197C15.4999 14.4354 15.477 14.3527 15.4334 14.2797L15.4334 14.2797Z" fill="#757F99"/>
</svg>
