<svg width="12" height="14" viewBox="0 0 12 14" fill="none" xmlns="http://www.w3.org/2000/svg">
    <path fill-rule="evenodd" clip-rule="evenodd" d="M9.37038 1.73504H10.8148C11.0701 1.73529 11.3149 1.83622 11.4955 2.01569C11.676 2.19516 11.7775 2.4385 11.7778 2.6923V12.265C11.7775 12.5188 11.676 12.7621 11.4955 12.9416C11.3149 13.121 11.0701 13.222 10.8148 13.2222H1.18519C0.929876 13.222 0.685089 13.121 0.504553 12.9416C0.324017 12.7621 0.222481 12.5188 0.222229 12.265V2.6923C0.222481 2.4385 0.324017 2.19516 0.504553 2.01569C0.685089 1.83622 0.929876 1.73529 1.18519 1.73504H2.62964V1.2564C2.62964 1.12946 2.68036 1.00772 2.77066 0.917959C2.86095 0.828198 2.98342 0.777771 3.11112 0.777771C3.23881 0.777771 3.36128 0.828198 3.45158 0.917959C3.54187 1.00772 3.5926 1.12946 3.5926 1.2564V1.73504H8.40741V1.2564C8.40741 1.12946 8.45814 1.00772 8.54844 0.917959C8.63873 0.828198 8.7612 0.777771 8.8889 0.777771C9.01659 0.777771 9.13906 0.828198 9.22935 0.917959C9.31965 1.00772 9.37038 1.12946 9.37038 1.2564V1.73504ZM1.18519 4.60683H10.8148V2.6923H9.37038V3.17093C9.37038 3.29787 9.31965 3.41962 9.22935 3.50938C9.13906 3.59914 9.01659 3.64957 8.8889 3.64957C8.7612 3.64957 8.63873 3.59914 8.54844 3.50938C8.45814 3.41962 8.40741 3.29787 8.40741 3.17093V2.6923H3.5926V3.17093C3.5926 3.29787 3.54187 3.41962 3.45158 3.50938C3.36128 3.59914 3.23881 3.64957 3.11112 3.64957C2.98342 3.64957 2.86095 3.59914 2.77066 3.50938C2.68036 3.41962 2.62964 3.29787 2.62964 3.17093V2.6923H1.18519V4.60683ZM2.8889 6.1111C2.64344 6.1111 2.44445 6.31009 2.44445 6.55555C2.44445 6.80101 2.64344 6.99999 2.8889 6.99999H9.11112C9.35658 6.99999 9.55556 6.80101 9.55556 6.55555C9.55556 6.31009 9.35658 6.1111 9.11112 6.1111H2.8889Z" fill="#757F99"/>
</svg>
