<svg width="18" height="18" viewBox="0 0 18 18" fill="none" xmlns="http://www.w3.org/2000/svg">
<path d="M11.9509 8.54925C11.9509 10.4552 10.4058 12.0002 8.49994 12.0002C6.59404 12.0002 5.049 10.4552 5.049 8.54925C5.049 6.64335 6.59404 5.09831 8.49994 5.09831C10.4058 5.09831 11.9509 6.64335 11.9509 8.54925Z" fill="#5933C6"/>
<path fill-rule="evenodd" clip-rule="evenodd" d="M14 8.5C14 9.78456 13.5596 10.9663 12.8216 11.9024L14.8127 13.8934C15.0665 14.1473 15.0665 14.5588 14.8127 14.8127C14.5588 15.0665 14.1473 15.0665 13.8934 14.8127L11.9024 12.8216C10.9663 13.5596 9.78456 14 8.5 14C5.46243 14 3 11.5376 3 8.5C3 5.46243 5.46243 3 8.5 3C11.5376 3 14 5.46243 14 8.5ZM12.9509 8.54925C12.9509 11.0074 10.9581 13.0002 8.49994 13.0002C6.04175 13.0002 4.049 11.0074 4.049 8.54925C4.049 6.09107 6.04175 4.09831 8.49994 4.09831C10.9581 4.09831 12.9509 6.09107 12.9509 8.54925Z" fill="#5933C6"/>
</svg>
