<svg width="16" height="12" viewBox="0 0 16 12" fill="none" xmlns="http://www.w3.org/2000/svg">
<path d="M15.0312 9.9375V3.1875C15.0312 3.1875 8.63281 7.95 8.01055 8.19712C7.39883 7.96125 0.96875 3.1875 0.96875 3.1875V9.9375C0.96875 10.875 1.15508 11.0625 2.02344 11.0625H13.9766C14.8657 11.0625 15.0312 10.8979 15.0312 9.9375ZM15.0211 1.86412C15.0211 1.18125 14.8344 0.9375 13.9766 0.9375H2.02344C1.14102 0.9375 0.96875 1.23 0.96875 1.9125L0.979297 2.0175C0.979297 2.0175 7.33168 6.6825 8.01055 6.9375C8.72773 6.64125 15.0312 1.9125 15.0312 1.9125L15.0211 1.86412Z" fill="#757F99"/>
</svg>
