<svg width="18" height="18" viewBox="0 0 18 18" fill="none" xmlns="http://www.w3.org/2000/svg">
<path d="M14.0417 3.5H6.70837C6.58682 3.50001 6.47024 3.5483 6.38429 3.63425C6.29834 3.7202 6.25005 3.83678 6.25004 3.95833V6.25004H3.95833C3.83678 6.25005 3.7202 6.29834 3.63425 6.38429C3.5483 6.47024 3.50001 6.58682 3.5 6.70837V14.0417C3.50001 14.1632 3.5483 14.2798 3.63425 14.3658C3.7202 14.4517 3.83678 14.5 3.95833 14.5H11.2916C11.4132 14.5 11.5298 14.4517 11.6157 14.3658C11.7017 14.2798 11.75 14.1632 11.75 14.0417V11.75H14.0417C14.1632 11.75 14.2798 11.7017 14.3658 11.6157C14.4517 11.5298 14.5 11.4132 14.5 11.2916V3.95833C14.5 3.83678 14.4517 3.7202 14.3658 3.63425C14.2798 3.5483 14.1632 3.50001 14.0417 3.5ZM13.5833 10.8333H11.75V6.70837C11.75 6.58682 11.7017 6.47024 11.6157 6.38429C11.5298 6.29834 11.4132 6.25005 11.2916 6.25004H7.1667V4.41666H13.5833V10.8333Z" fill="#757F99"/>
</svg>
