<svg width="18" height="18" viewBox="0 0 18 18" fill="none" xmlns="http://www.w3.org/2000/svg">
<path d="M3.07543 11.0553L4.2011 12.9448C4.33528 13.1699 4.61478 13.272 4.86888 13.1887L6.52526 12.6457C6.67164 12.7392 6.82341 12.8243 6.97962 12.9004L7.32242 14.5615C7.37503 14.8165 7.60605 15 7.87433 15H10.1257C10.3939 15 10.625 14.8165 10.6776 14.5615L11.0204 12.9004C11.1766 12.8243 11.3283 12.7392 11.4747 12.6457L13.1311 13.1887C13.3852 13.272 13.6648 13.17 13.7989 12.9448L14.9246 11.0552C15.0587 10.8301 15.0102 10.5444 14.8087 10.3728L13.495 9.254C13.5001 9.16924 13.5027 9.0844 13.5027 9C13.5027 8.91556 13.5001 8.83073 13.495 8.74596L14.8086 7.6272C15.0102 7.45556 15.0586 7.16993 14.9245 6.94476L13.7988 5.05524C13.6647 4.83007 13.3851 4.72793 13.131 4.81127L11.4747 5.35433C11.3284 5.2608 11.1766 5.17571 11.0204 5.09956L10.6776 3.43847C10.625 3.18353 10.3939 3 10.1257 3H7.87433C7.60605 3 7.37503 3.18353 7.32242 3.43847L6.97962 5.09956C6.82341 5.17571 6.67167 5.26084 6.5253 5.35433L4.86888 4.81127C4.61486 4.728 4.33528 4.83007 4.2011 5.05524L3.07543 6.94476C2.94129 7.16993 2.98977 7.45556 3.1913 7.6272L4.50488 8.74596C4.49985 8.83062 4.49734 8.91545 4.49734 9C4.49734 9.08455 4.49985 9.16942 4.50488 9.25404L3.1913 10.3728C2.98977 10.5444 2.94129 10.8301 3.07543 11.0553ZM9 6.81818C10.2414 6.81818 11.2513 7.79695 11.2513 9C11.2513 10.2031 10.2414 11.1818 9 11.1818C7.75862 11.1818 6.74867 10.2031 6.74867 9C6.74867 7.79695 7.75862 6.81818 9 6.81818Z" fill="#757F99"/>
</svg>
