<svg width="18" height="18" viewBox="0 0 18 18" fill="none" xmlns="http://www.w3.org/2000/svg">
<path d="M3 12.1765C3 11.7866 3.29848 11.4706 3.66667 11.4706H5.66667C6.03486 11.4706 6.33333 11.7866 6.33333 12.1765V14.2941C6.33333 14.684 6.03486 15 5.66667 15H3.66667C3.29848 15 3 14.684 3 14.2941L3 12.1765Z" fill="#757F99"/>
<path d="M3 7.94118C3 7.55133 3.29848 7.23529 3.66667 7.23529H5.66667C6.03486 7.23529 6.33333 7.55133 6.33333 7.94118V10.0588C6.33333 10.4487 6.03486 10.7647 5.66667 10.7647H3.66667C3.29848 10.7647 3 10.4487 3 10.0588L3 7.94118Z" fill="#757F99"/>
<path d="M3 3.70588C3 3.31603 3.29848 3 3.66667 3L5.66667 3C6.03486 3 6.33333 3.31603 6.33333 3.70588V5.82353C6.33333 6.21338 6.03486 6.52941 5.66667 6.52941H3.66667C3.29848 6.52941 3 6.21338 3 5.82353L3 3.70588Z" fill="#757F99"/>
<path d="M7 12.1765C7 11.7866 7.29848 11.4706 7.66667 11.4706H14.3333C14.7015 11.4706 15 11.7866 15 12.1765V14.2941C15 14.684 14.7015 15 14.3333 15H7.66667C7.29848 15 7 14.684 7 14.2941V12.1765Z" fill="#757F99"/>
<path d="M7 7.94118C7 7.55133 7.29848 7.23529 7.66667 7.23529H14.3333C14.7015 7.23529 15 7.55133 15 7.94118V10.0588C15 10.4487 14.7015 10.7647 14.3333 10.7647H7.66667C7.29848 10.7647 7 10.4487 7 10.0588V7.94118Z" fill="#757F99"/>
<path d="M7 3.70588C7 3.31603 7.29848 3 7.66667 3L14.3333 3C14.7015 3 15 3.31603 15 3.70588V5.82353C15 6.21338 14.7015 6.52941 14.3333 6.52941H7.66667C7.29848 6.52941 7 6.21338 7 5.82353V3.70588Z" fill="#757F99"/>
</svg>
