<svg width="16" height="16" viewBox="0 0 16 16" fill="none" xmlns="http://www.w3.org/2000/svg">
<path fill-rule="evenodd" clip-rule="evenodd" d="M13.5 8C13.5 4.96243 11.0376 2.5 8 2.5C4.96243 2.5 2.5 4.96243 2.5 8C2.5 11.0376 4.96243 13.5 8 13.5C11.0376 13.5 13.5 11.0376 13.5 8ZM8 11.3594C8.33655 11.3594 8.60938 11.0865 8.60938 10.75V7.54167C8.60938 7.20512 8.33655 6.93229 8 6.93229C7.66345 6.93229 7.39062 7.20512 7.39062 7.54167V10.75C7.39062 11.0865 7.66345 11.3594 8 11.3594ZM8 4.7915C8.3797 4.7915 8.6875 5.09931 8.6875 5.479C8.6875 5.8587 8.3797 6.1665 8 6.1665C7.6203 6.1665 7.3125 5.8587 7.3125 5.479C7.3125 5.09931 7.6203 4.7915 8 4.7915Z" fill="#29B8F5"/>
</svg>
