<svg width="16" height="16" viewBox="0 0 16 16" fill="none" xmlns="http://www.w3.org/2000/svg">
<path fill-rule="evenodd" clip-rule="evenodd" d="M13.5 8C13.5 11.0376 11.0376 13.5 8 13.5C4.96243 13.5 2.5 11.0376 2.5 8C2.5 4.96243 4.96243 2.5 8 2.5C11.0376 2.5 13.5 4.96243 13.5 8ZM10.9353 7.05901C11.175 6.83021 11.1838 6.45042 10.955 6.21072C10.7262 5.97102 10.3464 5.96218 10.1067 6.19099L7.15989 9.00386L5.89363 7.79516C5.65394 7.56635 5.27414 7.57518 5.04533 7.81488C4.81653 8.05458 4.82536 8.43437 5.06506 8.66318L6.74559 10.2673C6.97745 10.4887 7.34231 10.4887 7.57417 10.2673L10.9353 7.05901Z" fill="#18B64D"/>
</svg>
