<svg width="18" height="18" viewBox="0 0 18 18" fill="none" xmlns="http://www.w3.org/2000/svg">
<path d="M14.9655 8.83794C14.948 8.79844 14.5246 7.85913 13.5829 6.91738C12.3287 5.66304 10.7439 5 9 5C7.2561 5 5.67133 5.66304 4.41713 6.91738C3.47543 7.85913 3.05204 8.79844 3.03446 8.83794C3.01174 8.88908 3 8.94443 3 9.00039C3 9.05635 3.01174 9.1117 3.03446 9.16284C3.05204 9.20239 3.47548 10.1415 4.41718 11.0831C5.67138 12.3371 7.2561 13 9 13C10.7439 13 12.3286 12.3371 13.5828 11.0831C14.5245 10.1415 14.948 9.20239 14.9655 9.16284C14.9883 9.1117 15 9.05636 15 9.00039C15 8.94443 14.9883 8.88908 14.9655 8.83794ZM9 7.20044C9.35601 7.20044 9.70402 7.30601 10 7.50379C10.296 7.70158 10.5267 7.9827 10.663 8.31161C10.7992 8.64052 10.8349 9.00244 10.7654 9.3516C10.696 9.70077 10.5245 10.0215 10.2728 10.2732C10.0211 10.525 9.70033 10.6964 9.35116 10.7659C9.002 10.8353 8.64008 10.7997 8.31117 10.6634C7.98226 10.5272 7.70114 10.2965 7.50335 10.0005C7.30556 9.70446 7.2 9.35645 7.2 9.00044C7.20053 8.52321 7.39035 8.06569 7.7278 7.72824C8.06525 7.39079 8.52277 7.20098 9 7.20044Z" fill="#757F99"/>
</svg>
