<svg width="18" height="18" viewBox="0 0 18 18" fill="none" xmlns="http://www.w3.org/2000/svg">
<path d="M3 3.75C3 3.33579 3.31603 3 3.70587 3L5.82349 3C6.21333 3 6.52936 3.33579 6.52936 3.75L6.52936 14.25C6.52936 14.6642 6.21333 15 5.82349 15H3.70587C3.31603 15 3 14.6642 3 14.25L3 3.75Z" fill="#757F99"/>
<path d="M7.23532 3.75C7.23532 3.33579 7.55135 3 7.94119 3H10.0588C10.4487 3 10.7647 3.33579 10.7647 3.75L10.7647 14.25C10.7647 14.6642 10.4487 15 10.0588 15H7.94119C7.55135 15 7.23532 14.6642 7.23532 14.25L7.23532 3.75Z" fill="#757F99"/>
<path d="M11.4706 3.75C11.4706 3.33579 11.7867 3 12.1765 3H14.2941C14.684 3 15 3.33579 15 3.75V14.25C15 14.6642 14.684 15 14.2941 15H12.1765C11.7867 15 11.4706 14.6642 11.4706 14.25L11.4706 3.75Z" fill="#757F99"/>
</svg>
