<svg width="16" height="16" viewBox="0 0 16 16" fill="none" xmlns="http://www.w3.org/2000/svg">
<path fill-rule="evenodd" clip-rule="evenodd" d="M7.20092 3.46076L2.12421 12.2315C2.04297 12.3719 2.00013 12.5312 2 12.6933C1.99987 12.8555 2.04244 13.0148 2.12344 13.1553C2.20444 13.2958 2.32101 13.4124 2.46143 13.4935C2.60184 13.5747 2.76113 13.6174 2.92329 13.6174H13.0767C13.2389 13.6174 13.3982 13.5747 13.5386 13.4935C13.679 13.4124 13.7956 13.2958 13.8766 13.1553C13.9576 13.0148 14.0001 12.8555 14 12.6933C13.9999 12.5312 13.957 12.3719 13.8758 12.2315L8.79908 3.46076C8.71798 3.32064 8.60145 3.20431 8.4612 3.12344C8.32095 3.04257 8.1619 3 8 3C7.8381 3 7.67905 3.04257 7.5388 3.12344C7.39854 3.20431 7.28202 3.32064 7.20092 3.46076ZM7.99942 6.54506C8.33634 6.54506 8.60947 6.81819 8.60947 7.15511V9.46333C8.60947 9.80025 8.33634 10.0734 7.99942 10.0734C7.6625 10.0734 7.38938 9.80025 7.38938 9.46333V7.15511C7.38938 6.81819 7.6625 6.54506 7.99942 6.54506ZM8.69192 11.5407C8.69192 11.9232 8.38189 12.2332 7.99945 12.2332C7.61701 12.2332 7.30699 11.9232 7.30699 11.5407C7.30699 11.1583 7.61701 10.8483 7.99945 10.8483C8.38189 10.8483 8.69192 11.1583 8.69192 11.5407Z" fill="#F89033"/>
</svg>
