<svg width="18" height="18" viewBox="0 0 18 18" fill="none" xmlns="http://www.w3.org/2000/svg">
    <path fill-rule="evenodd" clip-rule="evenodd" d="M7.00004 2.49113C6.41304 2.49113 5.83181 2.60783 5.28957 2.83455C4.74734 3.06128 4.25476 3.39358 3.83999 3.81245C3.50847 4.14725 2.97059 4.14764 2.63859 3.81333C2.30659 3.47903 2.3062 2.93661 2.63771 2.60181C3.21028 2.02358 3.89028 1.56485 4.63881 1.25186C5.38734 0.938879 6.18972 0.777779 7.00004 0.777779C7.81037 0.777779 8.61274 0.938879 9.36127 1.25186C10.1095 1.5647 10.7892 2.02316 11.3616 2.60101C11.3618 2.60128 11.3621 2.60155 11.3624 2.60181L11.9677 3.21041V2.34733C11.9677 1.87421 12.348 1.49066 12.8172 1.49066C13.2864 1.49066 13.6667 1.87421 13.6667 2.34733V5.27431C13.6667 5.74744 13.2864 6.13098 12.8172 6.13098H9.91466C9.44548 6.13098 9.06514 5.74744 9.06514 5.27431C9.06514 4.80118 9.44548 4.41763 9.91466 4.41763H10.762L10.1614 3.81378L10.1601 3.81245C9.74533 3.39358 9.25274 3.06128 8.71051 2.83455C8.16828 2.60783 7.58704 2.49113 7.00004 2.49113ZM0.333374 8.7257C0.333374 8.25257 0.713717 7.86902 1.18289 7.86902H4.08542C4.5546 7.86902 4.93494 8.25257 4.93494 8.7257C4.93494 9.19882 4.5546 9.58237 4.08542 9.58237H3.2381L3.83867 10.1862L3.83999 10.1876C4.25476 10.6064 4.74734 10.9387 5.28957 11.1654C5.83181 11.3922 6.41304 11.5089 7.00004 11.5089C7.58704 11.5089 8.16827 11.3922 8.71051 11.1654C9.25274 10.9387 9.74533 10.6064 10.1601 10.1876C10.4916 9.85275 11.0295 9.85236 11.3615 10.1867C11.6935 10.521 11.6939 11.0634 11.3624 11.3982C10.7898 11.9764 10.1098 12.4352 9.36127 12.7481C8.61274 13.0611 7.81037 13.2222 7.00004 13.2222C6.18972 13.2222 5.38734 13.0611 4.63881 12.7481C3.89063 12.4353 3.21093 11.9769 2.63853 11.399C2.63826 11.3987 2.63798 11.3985 2.63771 11.3982L2.03241 10.7896V11.6527C2.03241 12.1258 1.65207 12.5093 1.18289 12.5093C0.713717 12.5093 0.333374 12.1258 0.333374 11.6527V8.7257Z" fill="#ABB3B9"/>
</svg>
