<svg width="18" height="18" viewBox="0 0 18 18" fill="none" xmlns="http://www.w3.org/2000/svg">
<path fill-rule="evenodd" clip-rule="evenodd" d="M7.43912 7H13.441C13.6767 7.00027 13.9027 7.09401 14.0694 7.26065C14.2361 7.42729 14.3299 7.65322 14.3302 7.88889V14.1111C14.3299 14.3468 14.2361 14.5727 14.0694 14.7394C13.9027 14.906 13.6767 14.9997 13.441 15H4.54932C4.31358 14.9997 4.08758 14.906 3.92088 14.7394C3.75419 14.5727 3.66043 14.3468 3.66016 14.1111V7.88889C3.66043 7.65322 3.75419 7.42729 3.92088 7.26065C4.08758 7.09401 4.31358 7.00027 4.54932 7H6.54995V5.44444C6.54995 4.79614 6.80757 4.17438 7.26613 3.71596C7.7247 3.25754 8.34665 3 8.99516 3C9.64367 3 10.2656 3.25754 10.7242 3.71596C11.1827 4.17438 11.4404 4.79614 11.4404 5.44444C11.4404 5.56232 11.3935 5.67536 11.3101 5.75871C11.2268 5.84206 11.1137 5.88889 10.9958 5.88889C10.8779 5.88889 10.7648 5.84206 10.6814 5.75871C10.598 5.67536 10.5512 5.56232 10.5512 5.44444C10.5512 5.03189 10.3873 4.63622 10.0954 4.3445C9.80363 4.05278 9.40784 3.88889 8.99516 3.88889C8.58247 3.88889 8.18668 4.05278 7.89487 4.3445C7.60306 4.63622 7.43912 5.03189 7.43912 5.44444V7ZM7 10.5C6.72386 10.5 6.5 10.7239 6.5 11C6.5 11.2761 6.72386 11.5 7 11.5H11C11.2761 11.5 11.5 11.2761 11.5 11C11.5 10.7239 11.2761 10.5 11 10.5H7Z" fill="#757F99"/>
</svg>
