<svg width="18" height="18" viewBox="0 0 18 18" fill="none" xmlns="http://www.w3.org/2000/svg">
<path d="M14.0417 4.84615H11.7502V4.38462C11.7498 4.01752 11.6048 3.66558 11.347 3.406C11.0893 3.14643 10.7398 3.00042 10.3752 3H7.62522C7.26068 3.00042 6.91118 3.14643 6.65341 3.406C6.39563 3.66558 6.25064 4.01752 6.25022 4.38462V4.84615H3.95833C3.83678 4.84615 3.7202 4.89478 3.63424 4.98134C3.54829 5.06789 3.5 5.18528 3.5 5.30769C3.5 5.4301 3.54829 5.54749 3.63424 5.63405C3.7202 5.7206 3.83678 5.76923 3.95833 5.76923H4.41667V14.0769C4.41694 14.3217 4.51361 14.5563 4.68546 14.7293C4.85731 14.9024 5.0903 14.9997 5.33333 15H12.6667C12.9097 14.9997 13.1427 14.9024 13.3145 14.7293C13.4864 14.5563 13.5831 14.3217 13.5833 14.0769V5.76923H14.0417C14.1632 5.76923 14.2798 5.7206 14.3658 5.63405C14.4517 5.54749 14.5 5.4301 14.5 5.30769C14.5 5.18528 14.4517 5.06789 14.3658 4.98134C14.2798 4.89478 14.1632 4.84615 14.0417 4.84615ZM8.08356 11.7692C8.08356 11.8916 8.03527 12.009 7.94931 12.0956C7.86336 12.1821 7.74678 12.2308 7.62522 12.2308C7.50367 12.2308 7.38709 12.1821 7.30113 12.0956C7.21518 12.009 7.16689 11.8916 7.16689 11.7692V8.07692C7.16689 7.95452 7.21518 7.83712 7.30113 7.75057C7.38709 7.66401 7.50367 7.61538 7.62522 7.61538C7.74678 7.61538 7.86336 7.66401 7.94931 7.75057C8.03527 7.83712 8.08356 7.95452 8.08356 8.07692V11.7692ZM10.8336 11.7692C10.8336 11.8916 10.7853 12.009 10.6993 12.0956C10.6134 12.1821 10.4968 12.2308 10.3752 12.2308C10.2537 12.2308 10.1371 12.1821 10.0511 12.0956C9.96518 12.009 9.91689 11.8916 9.91689 11.7692V8.07692C9.91689 7.95452 9.96518 7.83712 10.0511 7.75057C10.1371 7.66401 10.2537 7.61538 10.3752 7.61538C10.4968 7.61538 10.6134 7.66401 10.6993 7.75057C10.7853 7.83712 10.8336 7.95452 10.8336 8.07692V11.7692ZM10.8336 4.84615H7.16689V4.38462C7.16703 4.26225 7.21536 4.14494 7.30129 4.05841C7.38721 3.97189 7.50371 3.92322 7.62522 3.92308H10.3752C10.4967 3.92322 10.6132 3.97189 10.6992 4.05841C10.7851 4.14494 10.8334 4.26225 10.8336 4.38462V4.84615Z" fill="#757F99"/>
</svg>
