<svg width="12" height="12" viewBox="0 0 12 12" fill="none" xmlns="http://www.w3.org/2000/svg">
<path fill-rule="evenodd" clip-rule="evenodd" d="M11.5 6C11.5 9.03757 9.03757 11.5 6 11.5C2.96243 11.5 0.5 9.03757 0.5 6C0.5 2.96243 2.96243 0.5 6 0.5C9.03757 0.5 11.5 2.96243 11.5 6ZM8.9353 5.05901C9.175 4.83021 9.18383 4.45042 8.95503 4.21072C8.72622 3.97102 8.34643 3.96218 8.10673 4.19099L5.15989 7.00386L3.89363 5.79516C3.65394 5.56635 3.27414 5.57518 3.04533 5.81488C2.81653 6.05458 2.82536 6.43437 3.06506 6.66318L4.74559 8.26734C4.97745 8.48866 5.34231 8.48866 5.57417 8.26735L8.9353 5.05901Z" fill="#525F7F"/>
</svg>
