<svg width="22" height="23" viewBox="0 0 22 23" fill="none" xmlns="http://www.w3.org/2000/svg">
<path fill-rule="evenodd" clip-rule="evenodd" d="M0 8.33333V1C0 0.734784 0.105357 0.48043 0.292893 0.292893C0.48043 0.105357 0.734784 0 1 0H21C21.2652 0 21.5196 0.105357 21.7071 0.292893C21.8946 0.48043 22 0.734784 22 1V8.33333C22 18.8353 13.0868 22.3146 11.307 22.9047C11.1081 22.9731 10.8919 22.9731 10.693 22.9047C8.91325 22.3146 0 18.8353 0 8.33333ZM11 4.875C11.6213 4.875 12.125 5.37868 12.125 6V11C12.125 11.6213 11.6213 12.125 11 12.125C10.3787 12.125 9.875 11.6213 9.875 11V6C9.875 5.37868 10.3787 4.875 11 4.875ZM12.5 15.5C12.5 16.3284 11.8284 17 11 17C10.1716 17 9.5 16.3284 9.5 15.5C9.5 14.6716 10.1716 14 11 14C11.8284 14 12.5 14.6716 12.5 15.5Z" fill="white"/>
</svg>
