<svg width="16" height="16" viewBox="0 0 16 16" fill="none" xmlns="http://www.w3.org/2000/svg">
<path d="M14.5983 10.3392C14.6663 10.4469 14.6846 10.5748 14.6492 10.6949C14.6138 10.8149 14.5276 10.9172 14.4095 10.9792C14.3511 11.0099 14.2866 11.0299 14.2197 11.0378C14.1528 11.0458 14.0848 11.0417 14.0197 11.0257C13.8881 10.9934 13.776 10.9147 13.708 10.807L12.4902 8.86548C11.7828 9.30208 11.0025 9.63111 10.1797 9.83975L10.5559 11.8994C10.567 11.96 10.5649 12.0221 10.5497 12.082C10.5345 12.1419 10.5065 12.1984 10.4674 12.2484C10.4282 12.2985 10.3786 12.341 10.3214 12.3735C10.2643 12.406 10.2006 12.4279 10.1341 12.438C10.1068 12.4421 10.0792 12.4442 10.0515 12.4444C9.93017 12.4443 9.81286 12.4049 9.72039 12.3332C9.62792 12.2616 9.56627 12.1624 9.54641 12.0532L9.17659 10.031C8.39669 10.13 7.60553 10.13 6.82563 10.031L6.45581 12.0532C6.43591 12.1626 6.37408 12.262 6.28134 12.3336C6.18861 12.4053 6.07099 12.4445 5.94947 12.4444C5.92113 12.4443 5.89284 12.4422 5.86487 12.438C5.7984 12.4279 5.73476 12.406 5.67759 12.3735C5.62042 12.341 5.57083 12.2985 5.53166 12.2484C5.49249 12.1984 5.46452 12.1419 5.44933 12.082C5.43413 12.0221 5.43203 11.96 5.44313 11.8994L5.82128 9.83975C4.99808 9.63063 4.21753 9.301 3.51006 8.86373L2.29613 10.807C2.22813 10.9151 2.11586 10.9941 1.984 11.0267C1.85214 11.0593 1.7115 11.0427 1.59302 10.9807C1.47454 10.9186 1.38792 10.8162 1.35222 10.6959C1.31652 10.5756 1.33467 10.4473 1.40266 10.3392L2.68454 8.29238C2.23411 7.93762 1.82007 7.54614 1.44753 7.12279C1.37375 7.03954 1.3335 6.93571 1.3335 6.82864C1.3335 6.72157 1.37375 6.61775 1.44753 6.53449C2.65249 5.17659 4.76694 3.55554 8.00047 3.55554C11.234 3.55554 13.3484 5.17659 14.5521 6.538C14.6259 6.62125 14.6662 6.72508 14.6662 6.83215C14.6662 6.93922 14.6259 7.04305 14.5521 7.1263C14.1796 7.54964 13.7655 7.94113 13.3151 8.29589L14.5983 10.3392Z" fill="#757F99"/>
</svg>
