<svg width="18" height="18" viewBox="0 0 18 18" fill="none" xmlns="http://www.w3.org/2000/svg">
<path d="M13.478 7H11.478V5.44444C11.478 4.79614 11.2204 4.17438 10.762 3.71596C10.3036 3.25754 9.68184 3 9.03353 3C8.38522 3 7.76347 3.25754 7.30505 3.71596C6.84662 4.17438 6.58908 4.79614 6.58908 5.44444V7H4.58908C4.35342 7.00027 4.12748 7.09401 3.96084 7.26065C3.7942 7.42729 3.70046 7.65322 3.7002 7.88889V14.1111C3.70046 14.3468 3.7942 14.5727 3.96084 14.7394C4.12748 14.906 4.35342 14.9997 4.58908 15H13.478C13.7136 14.9997 13.9396 14.906 14.1062 14.7394C14.2729 14.5727 14.3666 14.3468 14.3669 14.1111V7.88889C14.3666 7.65322 14.2729 7.42729 14.1062 7.26065C13.9396 7.09401 13.7136 7.00027 13.478 7ZM9.0332 11.6667C8.90135 11.6667 8.77246 11.6276 8.66282 11.5543C8.55319 11.4811 8.46774 11.3769 8.41728 11.2551C8.36683 11.1333 8.35362 10.9993 8.37935 10.8699C8.40507 10.7406 8.46856 10.6218 8.5618 10.5286C8.65503 10.4354 8.77382 10.3719 8.90314 10.3461C9.03246 10.3204 9.16651 10.3336 9.28833 10.3841C9.41014 10.4345 9.51426 10.52 9.58752 10.6296C9.66077 10.7393 9.69987 10.8681 9.69987 11C9.69987 11.0875 9.68263 11.1742 9.64912 11.2551C9.61562 11.336 9.56651 11.4095 9.50461 11.4714C9.4427 11.5333 9.36921 11.5824 9.28833 11.6159C9.20744 11.6494 9.12075 11.6667 9.0332 11.6667ZM10.5891 7H7.47797V5.44444C7.47797 5.03189 7.64186 4.63622 7.93359 4.3445C8.22531 4.05278 8.62097 3.88889 9.03353 3.88889C9.44609 3.88889 9.84175 4.05278 10.1335 4.3445C10.4252 4.63622 10.5891 5.03189 10.5891 5.44444V7Z" fill="#757F99"/>
</svg>
