<svg width="12" height="14" viewBox="0 0 12 14" fill="none" xmlns="http://www.w3.org/2000/svg">
<path d="M9.5005 8.99983C9.16703 8.99971 8.83693 9.06656 8.52976 9.19641C8.22259 9.32626 7.9446 9.51648 7.71226 9.75578L4.83174 7.90327C5.05797 7.32196 5.05797 6.6769 4.83174 6.0956L7.71226 4.24309C8.14467 4.6856 8.72591 4.95174 9.34331 4.98993C9.9607 5.02812 10.5703 4.83563 11.0539 4.44977C11.5375 4.06392 11.8607 3.51219 11.9608 2.90152C12.0609 2.29086 11.9308 1.66475 11.5957 1.14458C11.2607 0.624407 10.7445 0.247213 10.1472 0.0861135C9.54998 -0.074986 8.91422 -0.00851606 8.36317 0.272639C7.81212 0.553794 7.38505 1.02961 7.16472 1.60785C6.9444 2.18609 6.94652 2.82557 7.17068 3.40233L4.29013 5.25486C3.94326 4.89854 3.49805 4.65381 3.01142 4.55194C2.52479 4.45008 2.01885 4.49571 1.55827 4.683C1.0977 4.87029 0.703422 5.19074 0.425844 5.60337C0.148266 6.016 0 6.50207 0 6.99943C0 7.4968 0.148266 7.98287 0.425844 8.3955C0.703422 8.80813 1.0977 9.12858 1.55827 9.31587C2.01885 9.50316 2.52479 9.54879 3.01142 9.44692C3.49805 9.34506 3.94326 9.10033 4.29013 8.74401L7.17068 10.5965C6.97783 11.0944 6.94937 11.6409 7.08945 12.1561C7.22953 12.6713 7.5308 13.1281 7.94914 13.4596C8.36749 13.7912 8.88095 13.98 9.41433 13.9985C9.94771 14.017 10.473 13.8642 10.9133 13.5624C11.3536 13.2607 11.6858 12.8259 11.8612 12.3216C12.0366 11.8173 12.046 11.2702 11.8881 10.7601C11.7302 10.2501 11.4132 9.8041 10.9836 9.48734C10.5539 9.17058 10.0342 8.99974 9.5005 8.99983Z" fill="#757F99"/>
</svg>
