<svg width="18" height="18" viewBox="0 0 18 18" fill="none" xmlns="http://www.w3.org/2000/svg">
<path fill-rule="evenodd" clip-rule="evenodd" d="M17.25 9C17.25 4.44365 13.5563 0.75 9 0.75C4.44365 0.75 0.75 4.44365 0.75 9C0.75 13.5563 4.44365 17.25 9 17.25C13.5563 17.25 17.25 13.5563 17.25 9ZM9 14.0391C9.50482 14.0391 9.91406 13.6298 9.91406 13.125V8.3125C9.91406 7.80768 9.50482 7.39844 9 7.39844C8.49518 7.39844 8.08594 7.80768 8.08594 8.3125V13.125C8.08594 13.6298 8.49518 14.0391 9 14.0391ZM9 4.18726C9.56954 4.18726 10.0312 4.64896 10.0312 5.21851C10.0312 5.78805 9.56954 6.24976 9 6.24976C8.43046 6.24976 7.96875 5.78805 7.96875 5.21851C7.96875 4.64896 8.43046 4.18726 9 4.18726Z" fill="#29B8F5"/>
</svg>
