<svg width="16" height="16" viewBox="0 0 12 12" fill="none" xmlns="http://www.w3.org/2000/svg">
<mask id="path-1-inside-1_8576_619" fill="white">
<path d="M2.88252 7.8C2.84316 7.73171 2.79072 7.67186 2.72821 7.62385C2.6657 7.57584 2.59434 7.54063 2.5182 7.52023C2.44207 7.49982 2.36267 7.49462 2.28453 7.50492C2.20638 7.51523 2.13104 7.54083 2.0628 7.58027L1.02335 8.18027C0.885595 8.25988 0.785094 8.39094 0.74394 8.54462C0.702787 8.69831 0.724349 8.86205 0.803888 8.99985C0.883426 9.13764 1.01443 9.23821 1.1681 9.27944C1.32176 9.32067 1.48551 9.29919 1.62335 9.21973L2.6628 8.61973C2.80057 8.5401 2.9011 8.40903 2.94229 8.25533C2.98349 8.10163 2.96199 7.93786 2.88252 7.8ZM2.4 6C2.4 5.84087 2.33679 5.68826 2.22426 5.57574C2.11174 5.46321 1.95913 5.4 1.8 5.4H0.6C0.44087 5.4 0.288258 5.46321 0.175736 5.57574C0.0632141 5.68826 0 5.84087 0 6C0 6.15913 0.0632141 6.31174 0.175736 6.42426C0.288258 6.53679 0.44087 6.6 0.6 6.6H1.8C1.95913 6.6 2.11174 6.53679 2.22426 6.42426C2.33679 6.31174 2.4 6.15913 2.4 6ZM9.11748 4.2C9.1971 4.33779 9.32816 4.43833 9.48186 4.47953C9.63557 4.52073 9.79935 4.49922 9.93721 4.41973L10.9767 3.81973C11.045 3.78035 11.1048 3.72791 11.1528 3.66539C11.2009 3.60287 11.2361 3.5315 11.2565 3.45536C11.2769 3.37923 11.2822 3.29981 11.2719 3.22165C11.2616 3.14349 11.2361 3.06812 11.1966 2.99985C11.1572 2.93157 11.1048 2.87173 11.0422 2.82375C10.9797 2.77576 10.9083 2.74056 10.8321 2.72017C10.756 2.69978 10.6766 2.6946 10.5984 2.70491C10.5203 2.71522 10.4449 2.74083 10.3767 2.78027L9.33721 3.38027C9.19944 3.4599 9.09891 3.59097 9.05771 3.74467C9.01651 3.89837 9.03801 4.06214 9.11748 4.2ZM7.8 2.88252C7.93786 2.96201 8.10163 2.98353 8.25534 2.94233C8.40905 2.90113 8.54011 2.80059 8.61973 2.6628L9.21973 1.62335C9.25917 1.55509 9.28478 1.47974 9.29509 1.40158C9.30541 1.32343 9.30022 1.24401 9.27983 1.16786C9.25944 1.09171 9.22424 1.02033 9.17626 0.957784C9.12827 0.895241 9.06843 0.842766 9.00015 0.803356C8.93188 0.763947 8.85651 0.738375 8.77835 0.728103C8.70019 0.717831 8.62077 0.723059 8.54464 0.743488C8.4685 0.763918 8.39713 0.799149 8.33461 0.847168C8.27209 0.895187 8.21965 0.955054 8.18027 1.02335L7.58027 2.0628C7.5008 2.20066 7.47931 2.36443 7.52051 2.51813C7.56171 2.67183 7.66223 2.80289 7.8 2.88252ZM10.9767 8.18027L9.93721 7.58027C9.86895 7.54083 9.7936 7.51522 9.71544 7.50491C9.63729 7.4946 9.55787 7.49978 9.48172 7.52017C9.40557 7.54056 9.33418 7.57576 9.27164 7.62375C9.2091 7.67173 9.15662 7.73157 9.11721 7.79985C9.0778 7.86812 9.05223 7.94349 9.04196 8.02165C9.03169 8.09981 9.03692 8.17923 9.05735 8.25536C9.07778 8.3315 9.11301 8.40287 9.16103 8.46539C9.20905 8.52791 9.26891 8.58035 9.33721 8.61973L10.3767 9.21973C10.5145 9.29919 10.6782 9.32067 10.8319 9.27944C10.9856 9.23821 11.1166 9.13764 11.1961 8.99985C11.2757 8.86205 11.2972 8.69831 11.2561 8.54462C11.2149 8.39094 11.1144 8.25988 10.9767 8.18027ZM8.61973 9.3372C8.58035 9.26891 8.52791 9.20904 8.46539 9.16102C8.40287 9.113 8.3315 9.07777 8.25536 9.05734C8.17923 9.03691 8.09981 9.03168 8.02165 9.04196C7.94349 9.05223 7.86812 9.0778 7.79985 9.11721C7.73157 9.15662 7.67173 9.20909 7.62375 9.27164C7.57576 9.33418 7.54056 9.40556 7.52017 9.48171C7.49978 9.55786 7.4946 9.63728 7.50491 9.71544C7.51522 9.79359 7.54083 9.86895 7.58027 9.9372L8.18027 10.9767C8.21965 11.0449 8.27209 11.1048 8.33461 11.1528C8.39713 11.2009 8.4685 11.2361 8.54464 11.2565C8.62077 11.2769 8.70019 11.2822 8.77835 11.2719C8.85651 11.2616 8.93188 11.2361 9.00015 11.1966C9.06843 11.1572 9.12827 11.1048 9.17626 11.0422C9.22424 10.9797 9.25944 10.9083 9.27983 10.8321C9.30022 10.756 9.30541 10.6766 9.29509 10.5984C9.28478 10.5203 9.25917 10.4449 9.21973 10.3767L8.61973 9.3372ZM11.4 5.4H10.2C10.0409 5.4 9.88826 5.46321 9.77574 5.57574C9.66321 5.68826 9.6 5.84087 9.6 6C9.6 6.15913 9.66321 6.31174 9.77574 6.42426C9.88826 6.53679 10.0409 6.6 10.2 6.6H11.4C11.5591 6.6 11.7117 6.53679 11.8243 6.42426C11.9368 6.31174 12 6.15913 12 6C12 5.84087 11.9368 5.68826 11.8243 5.57574C11.7117 5.46321 11.5591 5.4 11.4 5.4ZM6 9.6C5.84087 9.6 5.68826 9.66321 5.57574 9.77574C5.46321 9.88826 5.4 10.0409 5.4 10.2V11.4C5.4 11.5591 5.46321 11.7117 5.57574 11.8243C5.68826 11.9368 5.84087 12 6 12C6.15913 12 6.31174 11.9368 6.42426 11.8243C6.53679 11.7117 6.6 11.5591 6.6 11.4V10.2C6.6 10.0409 6.53679 9.88826 6.42426 9.77574C6.31174 9.66321 6.15913 9.6 6 9.6ZM4.2 9.11748C4.13176 9.07804 4.05642 9.05243 3.97827 9.04212C3.90013 9.03182 3.82072 9.03702 3.74459 9.05742C3.66846 9.07783 3.5971 9.11304 3.53458 9.16105C3.47207 9.20906 3.41963 9.26892 3.38027 9.33721L2.78027 10.3767C2.70081 10.5145 2.67933 10.6782 2.72056 10.8319C2.76179 10.9856 2.86236 11.1166 3.00015 11.1961C3.13795 11.2757 3.30169 11.2972 3.45538 11.2561C3.60906 11.2149 3.74012 11.1144 3.81973 10.9767L4.41973 9.93721C4.4992 9.79935 4.5207 9.63557 4.4795 9.48187C4.4383 9.32817 4.33777 9.19711 4.2 9.11748ZM6 0C5.84087 0 5.68826 0.0632141 5.57574 0.175736C5.46321 0.288258 5.4 0.44087 5.4 0.6V1.8C5.4 1.95913 5.46321 2.11174 5.57574 2.22426C5.68826 2.33679 5.84087 2.4 6 2.4C6.15913 2.4 6.31174 2.33679 6.42426 2.22426C6.53679 2.11174 6.6 1.95913 6.6 1.8V0.6C6.6 0.44087 6.53679 0.288258 6.42426 0.175736C6.31174 0.0632141 6.15913 0 6 0Z"/>
</mask>
<path d="M2.88252 7.8C2.84316 7.73171 2.79072 7.67186 2.72821 7.62385C2.6657 7.57584 2.59434 7.54063 2.5182 7.52023C2.44207 7.49982 2.36267 7.49462 2.28453 7.50492C2.20638 7.51523 2.13104 7.54083 2.0628 7.58027L1.02335 8.18027C0.885595 8.25988 0.785094 8.39094 0.74394 8.54462C0.702787 8.69831 0.724349 8.86205 0.803888 8.99985C0.883426 9.13764 1.01443 9.23821 1.1681 9.27944C1.32176 9.32067 1.48551 9.29919 1.62335 9.21973L2.6628 8.61973C2.80057 8.5401 2.9011 8.40903 2.94229 8.25533C2.98349 8.10163 2.96199 7.93786 2.88252 7.8ZM2.4 6C2.4 5.84087 2.33679 5.68826 2.22426 5.57574C2.11174 5.46321 1.95913 5.4 1.8 5.4H0.6C0.44087 5.4 0.288258 5.46321 0.175736 5.57574C0.0632141 5.68826 0 5.84087 0 6C0 6.15913 0.0632141 6.31174 0.175736 6.42426C0.288258 6.53679 0.44087 6.6 0.6 6.6H1.8C1.95913 6.6 2.11174 6.53679 2.22426 6.42426C2.33679 6.31174 2.4 6.15913 2.4 6ZM9.11748 4.2C9.1971 4.33779 9.32816 4.43833 9.48186 4.47953C9.63557 4.52073 9.79935 4.49922 9.93721 4.41973L10.9767 3.81973C11.045 3.78035 11.1048 3.72791 11.1528 3.66539C11.2009 3.60287 11.2361 3.5315 11.2565 3.45536C11.2769 3.37923 11.2822 3.29981 11.2719 3.22165C11.2616 3.14349 11.2361 3.06812 11.1966 2.99985C11.1572 2.93157 11.1048 2.87173 11.0422 2.82375C10.9797 2.77576 10.9083 2.74056 10.8321 2.72017C10.756 2.69978 10.6766 2.6946 10.5984 2.70491C10.5203 2.71522 10.4449 2.74083 10.3767 2.78027L9.33721 3.38027C9.19944 3.4599 9.09891 3.59097 9.05771 3.74467C9.01651 3.89837 9.03801 4.06214 9.11748 4.2ZM7.8 2.88252C7.93786 2.96201 8.10163 2.98353 8.25534 2.94233C8.40905 2.90113 8.54011 2.80059 8.61973 2.6628L9.21973 1.62335C9.25917 1.55509 9.28478 1.47974 9.29509 1.40158C9.30541 1.32343 9.30022 1.24401 9.27983 1.16786C9.25944 1.09171 9.22424 1.02033 9.17626 0.957784C9.12827 0.895241 9.06843 0.842766 9.00015 0.803356C8.93188 0.763947 8.85651 0.738375 8.77835 0.728103C8.70019 0.717831 8.62077 0.723059 8.54464 0.743488C8.4685 0.763918 8.39713 0.799149 8.33461 0.847168C8.27209 0.895187 8.21965 0.955054 8.18027 1.02335L7.58027 2.0628C7.5008 2.20066 7.47931 2.36443 7.52051 2.51813C7.56171 2.67183 7.66223 2.80289 7.8 2.88252ZM10.9767 8.18027L9.93721 7.58027C9.86895 7.54083 9.7936 7.51522 9.71544 7.50491C9.63729 7.4946 9.55787 7.49978 9.48172 7.52017C9.40557 7.54056 9.33418 7.57576 9.27164 7.62375C9.2091 7.67173 9.15662 7.73157 9.11721 7.79985C9.0778 7.86812 9.05223 7.94349 9.04196 8.02165C9.03169 8.09981 9.03692 8.17923 9.05735 8.25536C9.07778 8.3315 9.11301 8.40287 9.16103 8.46539C9.20905 8.52791 9.26891 8.58035 9.33721 8.61973L10.3767 9.21973C10.5145 9.29919 10.6782 9.32067 10.8319 9.27944C10.9856 9.23821 11.1166 9.13764 11.1961 8.99985C11.2757 8.86205 11.2972 8.69831 11.2561 8.54462C11.2149 8.39094 11.1144 8.25988 10.9767 8.18027ZM8.61973 9.3372C8.58035 9.26891 8.52791 9.20904 8.46539 9.16102C8.40287 9.113 8.3315 9.07777 8.25536 9.05734C8.17923 9.03691 8.09981 9.03168 8.02165 9.04196C7.94349 9.05223 7.86812 9.0778 7.79985 9.11721C7.73157 9.15662 7.67173 9.20909 7.62375 9.27164C7.57576 9.33418 7.54056 9.40556 7.52017 9.48171C7.49978 9.55786 7.4946 9.63728 7.50491 9.71544C7.51522 9.79359 7.54083 9.86895 7.58027 9.9372L8.18027 10.9767C8.21965 11.0449 8.27209 11.1048 8.33461 11.1528C8.39713 11.2009 8.4685 11.2361 8.54464 11.2565C8.62077 11.2769 8.70019 11.2822 8.77835 11.2719C8.85651 11.2616 8.93188 11.2361 9.00015 11.1966C9.06843 11.1572 9.12827 11.1048 9.17626 11.0422C9.22424 10.9797 9.25944 10.9083 9.27983 10.8321C9.30022 10.756 9.30541 10.6766 9.29509 10.5984C9.28478 10.5203 9.25917 10.4449 9.21973 10.3767L8.61973 9.3372ZM11.4 5.4H10.2C10.0409 5.4 9.88826 5.46321 9.77574 5.57574C9.66321 5.68826 9.6 5.84087 9.6 6C9.6 6.15913 9.66321 6.31174 9.77574 6.42426C9.88826 6.53679 10.0409 6.6 10.2 6.6H11.4C11.5591 6.6 11.7117 6.53679 11.8243 6.42426C11.9368 6.31174 12 6.15913 12 6C12 5.84087 11.9368 5.68826 11.8243 5.57574C11.7117 5.46321 11.5591 5.4 11.4 5.4ZM6 9.6C5.84087 9.6 5.68826 9.66321 5.57574 9.77574C5.46321 9.88826 5.4 10.0409 5.4 10.2V11.4C5.4 11.5591 5.46321 11.7117 5.57574 11.8243C5.68826 11.9368 5.84087 12 6 12C6.15913 12 6.31174 11.9368 6.42426 11.8243C6.53679 11.7117 6.6 11.5591 6.6 11.4V10.2C6.6 10.0409 6.53679 9.88826 6.42426 9.77574C6.31174 9.66321 6.15913 9.6 6 9.6ZM4.2 9.11748C4.13176 9.07804 4.05642 9.05243 3.97827 9.04212C3.90013 9.03182 3.82072 9.03702 3.74459 9.05742C3.66846 9.07783 3.5971 9.11304 3.53458 9.16105C3.47207 9.20906 3.41963 9.26892 3.38027 9.33721L2.78027 10.3767C2.70081 10.5145 2.67933 10.6782 2.72056 10.8319C2.76179 10.9856 2.86236 11.1166 3.00015 11.1961C3.13795 11.2757 3.30169 11.2972 3.45538 11.2561C3.60906 11.2149 3.74012 11.1144 3.81973 10.9767L4.41973 9.93721C4.4992 9.79935 4.5207 9.63557 4.4795 9.48187C4.4383 9.32817 4.33777 9.19711 4.2 9.11748ZM6 0C5.84087 0 5.68826 0.0632141 5.57574 0.175736C5.46321 0.288258 5.4 0.44087 5.4 0.6V1.8C5.4 1.95913 5.46321 2.11174 5.57574 2.22426C5.68826 2.33679 5.84087 2.4 6 2.4C6.15913 2.4 6.31174 2.33679 6.42426 2.22426C6.53679 2.11174 6.6 1.95913 6.6 1.8V0.6C6.6 0.44087 6.53679 0.288258 6.42426 0.175736C6.31174 0.0632141 6.15913 0 6 0Z" fill="#F3F3F3" stroke="#F3F3F3" stroke-width="2" mask="url(#path-1-inside-1_8576_619)"/>
</svg>
