<svg width="16" height="16" viewBox="0 0 16 16" fill="none" xmlns="http://www.w3.org/2000/svg">
<path d="M4.88252 9.8C4.84316 9.73171 4.79072 9.67186 4.72821 9.62385C4.6657 9.57584 4.59434 9.54063 4.5182 9.52023C4.44207 9.49982 4.36267 9.49462 4.28453 9.50492C4.20638 9.51523 4.13104 9.54083 4.0628 9.58027L3.02335 10.1803C2.88559 10.2599 2.78509 10.3909 2.74394 10.5446C2.70279 10.6983 2.72435 10.8621 2.80389 10.9998C2.88343 11.1376 3.01443 11.2382 3.1681 11.2794C3.32176 11.3207 3.48551 11.2992 3.62335 11.2197L4.6628 10.6197C4.80057 10.5401 4.9011 10.409 4.94229 10.2553C4.98349 10.1016 4.96199 9.93786 4.88252 9.8ZM3.02334 5.81973L4.06279 6.41973C4.13105 6.45917 4.2064 6.48478 4.28456 6.49509C4.36271 6.50541 4.44213 6.50022 4.51828 6.47983C4.59443 6.45944 4.66582 6.42424 4.72836 6.37625C4.7909 6.32827 4.84338 6.26843 4.88279 6.20015C4.9222 6.13188 4.94777 6.05651 4.95804 5.97835C4.96831 5.90019 4.96308 5.82077 4.94265 5.74464C4.92222 5.6685 4.88699 5.59713 4.83897 5.53461C4.79095 5.47209 4.73109 5.41965 4.66279 5.38027L3.62334 4.78027C3.48551 4.70081 3.32176 4.67933 3.16809 4.72056C3.01442 4.76179 2.88342 4.86236 2.80388 5.00015C2.72434 5.13795 2.70278 5.30169 2.74393 5.45538C2.78509 5.60906 2.88559 5.74012 3.02334 5.81973ZM4.4 8C4.4 7.84087 4.33679 7.68826 4.22426 7.57574C4.11174 7.46321 3.95913 7.4 3.8 7.4H2.6C2.44087 7.4 2.28826 7.46321 2.17574 7.57574C2.06321 7.68826 2 7.84087 2 8C2 8.15913 2.06321 8.31174 2.17574 8.42426C2.28826 8.53679 2.44087 8.6 2.6 8.6H3.8C3.95913 8.6 4.11174 8.53679 4.22426 8.42426C4.33679 8.31174 4.4 8.15913 4.4 8ZM11.1175 6.2C11.1971 6.33779 11.3282 6.43833 11.4819 6.47953C11.6356 6.52073 11.7993 6.49922 11.9372 6.41973L12.9767 5.81973C13.045 5.78035 13.1048 5.72791 13.1528 5.66539C13.2009 5.60287 13.2361 5.5315 13.2565 5.45536C13.2769 5.37923 13.2822 5.29981 13.2719 5.22165C13.2616 5.14349 13.2361 5.06812 13.1966 4.99985C13.1572 4.93157 13.1048 4.87173 13.0422 4.82375C12.9797 4.77576 12.9083 4.74056 12.8321 4.72017C12.756 4.69978 12.6766 4.69459 12.5984 4.70491C12.5203 4.71522 12.4449 4.74083 12.3767 4.78027L11.3372 5.38027C11.1994 5.4599 11.0989 5.59097 11.0577 5.74467C11.0165 5.89837 11.038 6.06214 11.1175 6.2ZM9.8 4.88252C9.93786 4.96201 10.1016 4.98352 10.2553 4.94233C10.409 4.90113 10.5401 4.80059 10.6197 4.6628L11.2197 3.62335C11.2592 3.55509 11.2848 3.47974 11.2951 3.40158C11.3054 3.32343 11.3002 3.24401 11.2798 3.16786C11.2594 3.09171 11.2242 3.02033 11.1763 2.95778C11.1283 2.89524 11.0684 2.84277 11.0002 2.80336C10.9319 2.76395 10.8565 2.73838 10.7784 2.7281C10.7002 2.71783 10.6208 2.72306 10.5446 2.74349C10.4685 2.76392 10.3971 2.79915 10.3346 2.84717C10.2721 2.89519 10.2196 2.95505 10.1803 3.02335L9.58027 4.0628C9.5008 4.20066 9.47931 4.36443 9.52051 4.51813C9.56171 4.67183 9.66223 4.80289 9.8 4.88252ZM12.9767 10.1803L11.9372 9.58027C11.869 9.54083 11.7936 9.51522 11.7154 9.50491C11.6373 9.4946 11.5579 9.49978 11.4817 9.52017C11.4056 9.54056 11.3342 9.57576 11.2716 9.62375C11.2091 9.67173 11.1566 9.73157 11.1172 9.79985C11.0778 9.86812 11.0522 9.94349 11.042 10.0216C11.0317 10.0998 11.0369 10.1792 11.0573 10.2554C11.0778 10.3315 11.113 10.4029 11.161 10.4654C11.209 10.5279 11.2689 10.5804 11.3372 10.6197L12.3767 11.2197C12.5145 11.2992 12.6782 11.3207 12.8319 11.2794C12.9856 11.2382 13.1166 11.1376 13.1961 10.9998C13.2757 10.8621 13.2972 10.6983 13.2561 10.5446C13.2149 10.3909 13.1144 10.2599 12.9767 10.1803ZM10.6197 11.3372C10.5804 11.2689 10.5279 11.209 10.4654 11.161C10.4029 11.113 10.3315 11.0778 10.2554 11.0573C10.1792 11.0369 10.0998 11.0317 10.0216 11.042C9.94349 11.0522 9.86812 11.0778 9.79985 11.1172C9.73157 11.1566 9.67173 11.2091 9.62375 11.2716C9.57576 11.3342 9.54056 11.4056 9.52017 11.4817C9.49978 11.5579 9.4946 11.6373 9.50491 11.7154C9.51522 11.7936 9.54083 11.8689 9.58027 11.9372L10.1803 12.9767C10.2196 13.0449 10.2721 13.1048 10.3346 13.1528C10.3971 13.2009 10.4685 13.2361 10.5446 13.2565C10.6208 13.2769 10.7002 13.2822 10.7784 13.2719C10.8565 13.2616 10.9319 13.2361 11.0002 13.1966C11.0684 13.1572 11.1283 13.1048 11.1763 13.0422C11.2242 12.9797 11.2594 12.9083 11.2798 12.8321C11.3002 12.756 11.3054 12.6766 11.2951 12.5984C11.2848 12.5203 11.2592 12.4449 11.2197 12.3767L10.6197 11.3372ZM13.4 7.4H12.2C12.0409 7.4 11.8883 7.46321 11.7757 7.57574C11.6632 7.68826 11.6 7.84087 11.6 8C11.6 8.15913 11.6632 8.31174 11.7757 8.42426C11.8883 8.53679 12.0409 8.6 12.2 8.6H13.4C13.5591 8.6 13.7117 8.53679 13.8243 8.42426C13.9368 8.31174 14 8.15913 14 8C14 7.84087 13.9368 7.68826 13.8243 7.57574C13.7117 7.46321 13.5591 7.4 13.4 7.4ZM8 11.6C7.84087 11.6 7.68826 11.6632 7.57574 11.7757C7.46321 11.8883 7.4 12.0409 7.4 12.2V13.4C7.4 13.5591 7.46321 13.7117 7.57574 13.8243C7.68826 13.9368 7.84087 14 8 14C8.15913 14 8.31174 13.9368 8.42426 13.8243C8.53679 13.7117 8.6 13.5591 8.6 13.4V12.2C8.6 12.0409 8.53679 11.8883 8.42426 11.7757C8.31174 11.6632 8.15913 11.6 8 11.6ZM6.2 11.1175C6.13176 11.078 6.05642 11.0524 5.97827 11.0421C5.90013 11.0318 5.82072 11.037 5.74459 11.0574C5.66846 11.0778 5.5971 11.113 5.53458 11.1611C5.47207 11.2091 5.41964 11.2689 5.38027 11.3372L4.78027 12.3767C4.70081 12.5145 4.67933 12.6782 4.72056 12.8319C4.76179 12.9856 4.86236 13.1166 5.00015 13.1961C5.13795 13.2757 5.30169 13.2972 5.45538 13.2561C5.60906 13.2149 5.74012 13.1144 5.81973 12.9767L6.41973 11.9372C6.4992 11.7993 6.5207 11.6356 6.4795 11.4819C6.4383 11.3282 6.33777 11.1971 6.2 11.1175ZM8 2C7.84087 2 7.68826 2.06321 7.57574 2.17574C7.46321 2.28826 7.4 2.44087 7.4 2.6V3.8C7.4 3.95913 7.46321 4.11174 7.57574 4.22426C7.68826 4.33679 7.84087 4.4 8 4.4C8.15913 4.4 8.31174 4.33679 8.42426 4.22426C8.53679 4.11174 8.6 3.95913 8.6 3.8V2.6C8.6 2.44087 8.53679 2.28826 8.42426 2.17574C8.31174 2.06321 8.15913 2 8 2Z" fill="#fff"/>
<defs>
<linearGradient id="paint0_linear_4100_266787" x1="-7" y1="13.5" x2="11" y2="5.5">
<stop stop-color="white"/>
<stop offset="1" stop-color="white" stop-opacity="0"/>
</linearGradient>
</defs>
</svg>
