<svg width="75" height="20" viewBox="0 0 75 20" fill="none" xmlns="http://www.w3.org/2000/svg">
<g clip-path="url(#clip0_1427_128092)">
<path fill-rule="evenodd" clip-rule="evenodd" d="M1.52026 4.90614V14.7314L3.48454 15.8621V13.6007V13.0935V6.03736L8.41216 3.19963L6.44788 2.06897L1.52026 4.90614Z" fill="white"/>
<path fill-rule="evenodd" clip-rule="evenodd" d="M10.3449 0L8.41187 1.12983L11.2333 2.7784L11.2322 2.7795L16.815 6.04235V11.7241L18.7497 10.5937V4.91142L10.3449 0Z" fill="white"/>
<path fill-rule="evenodd" clip-rule="evenodd" d="M15.9621 14.6921L15.9577 14.6841L10.448 17.823L5.65552 15.0921V17.2691L10.448 20.0001L18.7501 15.2705V13.1035L15.9621 14.6921Z" fill="white"/>
<path fill-rule="evenodd" clip-rule="evenodd" d="M7.22592 11.6803V8.32037L10.1347 6.6407L13.0311 8.31309L11.4265 9.25297L10.1347 8.507L8.84227 9.25353V10.7471L10.1347 11.4937L11.4265 10.7477L13.0311 11.6876L10.1347 13.36L7.22592 11.6803ZM10.1347 4.82764L5.65552 7.41412V12.5865L10.1347 15.1725L14.615 12.5865V7.41412L10.1347 4.82764Z" fill="white"/>
<path d="M28.2543 14.4309C26.1498 14.4309 24.3242 13.0549 24.3242 10.278C24.3242 7.55108 26.2259 6 28.305 6C29.3953 6 30.2828 6.50035 30.8659 7.07575L29.7249 8.45171C29.3193 8.10147 28.9136 7.85129 28.3557 7.85129C27.3922 7.85129 26.5555 8.7269 26.5555 10.2029C26.5555 11.729 27.2655 12.5796 28.3304 12.5796C28.9643 12.5796 29.4714 12.2544 29.8264 11.8791L30.9674 13.23C30.2701 14.0306 29.3193 14.4309 28.2543 14.4309ZM34.0988 10.8909H35.6201L35.4807 10.328C35.2778 9.55248 35.075 8.56429 34.8721 7.75122H34.8214C34.6439 8.5768 34.4411 9.55248 34.2382 10.328L34.0988 10.8909ZM36.4188 14.2808L36.0131 12.5546H33.7058L33.3001 14.2808H31.0688L33.579 6.1501H36.216L38.7262 14.2808H36.4188ZM41.6928 7.85129V9.85269H42.4788C43.3409 9.85269 43.7973 9.47743 43.7973 8.77694C43.7973 8.07645 43.3409 7.85129 42.4788 7.85129H41.6928ZM46.3835 14.2808H43.9494L42.5295 11.5539H41.6928V14.2808H39.5122V6.1501H42.6309C44.4058 6.1501 45.9271 6.75052 45.9271 8.77694C45.9271 9.94025 45.3947 10.7033 44.596 11.1286L46.3835 14.2808ZM49.6797 7.85129V9.85269H50.4658C51.3279 9.85269 51.7843 9.47743 51.7843 8.77694C51.7843 8.07645 51.3279 7.85129 50.4658 7.85129H49.6797ZM54.3705 14.2808H51.9364L50.5165 11.5539H49.6797V14.2808H47.4992V6.1501H50.6179C52.3928 6.1501 53.9141 6.75052 53.9141 8.77694C53.9141 9.94025 53.3817 10.7033 52.583 11.1286L54.3705 14.2808ZM55.4862 14.2808V6.1501H57.6667V14.2808H55.4862ZM59.4923 14.2808V6.1501H64.817V7.95136H61.6729V9.22725H64.3606V11.0285H61.6729V12.4795H64.9438V14.2808H59.4923ZM68.7217 7.85129V9.85269H69.5078C70.3699 9.85269 70.8263 9.47743 70.8263 8.77694C70.8263 8.07645 70.3699 7.85129 69.5078 7.85129H68.7217ZM73.4125 14.2808H70.9784L69.5585 11.5539H68.7217V14.2808H66.5412V6.1501H69.6599C71.4348 6.1501 72.9561 6.75052 72.9561 8.77694C72.9561 9.94025 72.4237 10.7033 71.625 11.1286L73.4125 14.2808Z" fill="white"/>
</g>
<defs>
<clipPath id="clip0_1427_128092">
<rect width="75" height="20" fill="white"/>
</clipPath>
</defs>
</svg>
