<svg width="11" height="11" viewBox="0 0 11 11" fill="none" xmlns="http://www.w3.org/2000/svg">
    <path d="M10.5872 0.412799C10.4905 0.316126 10.3697 0.246969 10.2374 0.21244C10.105 0.177912 9.96589 0.179258 9.83423 0.21634L0.873107 2.74379C0.722332 2.78631 0.588128 2.87384 0.488431 2.99468C0.388735 3.11552 0.328297 3.26391 0.315196 3.42001C0.302095 3.57612 0.336954 3.73251 0.415115 3.86827C0.493276 4.00403 0.611014 4.11271 0.752593 4.17976L4.50067 5.95515L7.06319 3.39267C7.13535 3.32051 7.23322 3.27997 7.33526 3.27997C7.43731 3.27997 7.53518 3.32051 7.60734 3.39267C7.6795 3.46482 7.72003 3.56269 7.72003 3.66474C7.72003 3.76679 7.6795 3.86465 7.60734 3.93681L5.04482 6.4993L6.82023 10.2473C6.88173 10.3792 6.97968 10.4907 7.10252 10.5687C7.22535 10.6467 7.36795 10.6879 7.51345 10.6875C7.53548 10.6875 7.55766 10.6866 7.58 10.6847C7.73639 10.6725 7.8852 10.6124 8.0062 10.5125C8.1272 10.4127 8.2145 10.278 8.25622 10.1268L10.7837 1.1658C10.8207 1.03414 10.8221 0.895002 10.7875 0.762666C10.753 0.630329 10.6839 0.509571 10.5872 0.412799Z" fill="white"/>
</svg>
