<svg width="14" height="14" viewBox="0 0 14 14" fill="none" xmlns="http://www.w3.org/2000/svg">
<path d="M11.5872 2.4128C11.4905 2.31613 11.3697 2.24697 11.2374 2.21244C11.105 2.17791 10.9659 2.17926 10.8342 2.21634L1.87311 4.74379C1.72233 4.78631 1.58813 4.87384 1.48843 4.99468C1.38874 5.11552 1.3283 5.26391 1.3152 5.42001C1.30209 5.57612 1.33695 5.73251 1.41511 5.86827C1.49328 6.00403 1.61101 6.11271 1.75259 6.17976L5.50067 7.95515L8.06319 5.39267C8.13535 5.32051 8.23322 5.27997 8.33526 5.27997C8.43731 5.27997 8.53518 5.32051 8.60734 5.39267C8.6795 5.46482 8.72003 5.56269 8.72003 5.66474C8.72003 5.76679 8.6795 5.86465 8.60734 5.93681L6.04482 8.4993L7.82023 12.2473C7.88173 12.3792 7.97968 12.4907 8.10252 12.5687C8.22535 12.6467 8.36795 12.6879 8.51345 12.6875C8.53548 12.6875 8.55766 12.6866 8.58 12.6847C8.73639 12.6725 8.8852 12.6124 9.0062 12.5125C9.1272 12.4127 9.2145 12.278 9.25622 12.1268L11.7837 3.1658C11.8207 3.03414 11.8221 2.895 11.7875 2.76267C11.753 2.63033 11.6839 2.50957 11.5872 2.4128Z" fill="white"/>
</svg>
