<svg width="16" height="16" viewBox="0 0 16 16" fill="none" xmlns="http://www.w3.org/2000/svg">
<path fill-rule="evenodd" clip-rule="evenodd" d="M13.3426 6.15904C14.558 7.58895 15.3166 9.45586 15.5078 11.4459C15.5606 11.9956 15.1079 12.4444 14.5556 12.4444H8.00001V12.4444C7.63258 12.4444 7.41997 12.0279 7.6355 11.7303L10.5448 7.71354C10.7588 7.41802 10.7047 6.99581 10.424 6.77051C10.1432 6.5452 9.74214 6.60213 9.5281 6.89765L5.81014 12.031C5.62207 12.2907 5.32088 12.4444 5.00025 12.4444L1.44446 12.4444C0.892173 12.4444 0.439442 11.9956 0.492258 11.4459C0.683441 9.45586 1.44201 7.58895 2.65743 6.15904C4.07437 4.49205 5.99616 3.55554 8.00001 3.55554C10.0039 3.55554 11.9257 4.49205 13.3426 6.15904Z" fill="#DBE2E8"/>
</svg>
