<svg width="16" height="16" viewBox="0 0 16 16" fill="none" xmlns="http://www.w3.org/2000/svg">
<path d="M1.72552 3.11108C1.26348 3.11108 0.888916 3.50905 0.888916 3.99997V7.44442H4.76481L6.24797 4.6183C6.35059 4.42275 6.55367 4.31176 6.76308 4.33679C6.97249 4.36181 7.14729 4.51795 7.20648 4.73283L8.51967 9.50092L9.61372 6.88545C9.69764 6.68482 9.8849 6.55553 10.0915 6.55553H12.6013C12.8901 6.55553 13.1242 6.80426 13.1242 7.11108C13.1242 7.41791 12.8901 7.66664 12.6013 7.66664H10.4313L8.89614 11.3367C8.80705 11.5497 8.60231 11.681 8.38344 11.6654C8.16457 11.6499 7.9781 11.4908 7.9165 11.2671L6.55339 6.31782L5.5286 8.27053C5.43626 8.44648 5.26152 8.55553 5.07192 8.55553H0.888916V12C0.888916 12.4909 1.26348 12.8889 1.72552 12.8889H14.2745C14.7366 12.8889 15.1111 12.4909 15.1111 12V3.99997C15.1111 3.50905 14.7366 3.11108 14.2745 3.11108H1.72552Z" fill="#DBE2E8"/>
</svg>
