<svg width="14" height="14" viewBox="0 0 14 14" fill="none" xmlns="http://www.w3.org/2000/svg">
<path fill-rule="evenodd" clip-rule="evenodd" d="M13.875 7C13.875 10.797 10.797 13.875 7 13.875C3.20304 13.875 0.125 10.797 0.125 7C0.125 3.20304 3.20304 0.125 7 0.125C10.797 0.125 13.875 3.20304 13.875 7ZM10.6691 5.82377C10.9687 5.53776 10.9798 5.06302 10.6938 4.76339C10.4078 4.46377 9.93304 4.45273 9.63341 4.73873L5.94986 8.25483L4.36704 6.74394C4.06742 6.45794 3.59267 6.46898 3.30667 6.7686C3.02066 7.06822 3.0317 7.54297 3.33132 7.82897L5.43199 9.83418C5.72181 10.1108 6.17789 10.1108 6.46771 9.83419L10.6691 5.82377Z" fill="#5933C6"/>
</svg>
