<svg width="18" height="18" viewBox="0 0 18 18" fill="none" xmlns="http://www.w3.org/2000/svg">
<path fill-rule="evenodd" clip-rule="evenodd" d="M17.25 9C17.25 13.5563 13.5563 17.25 9 17.25C4.44365 17.25 0.75 13.5563 0.75 9C0.75 4.44365 4.44365 0.75 9 0.75C13.5563 0.75 17.25 4.44365 17.25 9ZM13.4029 7.58852C13.7625 7.24532 13.7757 6.67562 13.4325 6.31607C13.0893 5.95652 12.5196 5.94327 12.1601 6.28648L7.73983 10.5058L5.84045 8.69273C5.4809 8.34953 4.91121 8.36277 4.568 8.72232C4.22479 9.08186 4.23804 9.65156 4.59759 9.99477L7.11839 12.401C7.46617 12.733 8.01347 12.733 8.36125 12.401L13.4029 7.58852Z" fill="#18B64D"/>
</svg>
