<svg width="16" height="16" viewBox="0 0 16 16" fill="none" xmlns="http://www.w3.org/2000/svg">
<path d="M4.5905 5.61882C4.49512 5.52446 4.44161 5.39703 4.44161 5.26423C4.44161 5.13143 4.49512 5.004 4.5905 4.90964L7.63812 1.92365C7.73442 1.8302 7.86449 1.77777 8.00003 1.77777C8.13557 1.77777 8.26563 1.8302 8.36193 1.92365L11.4095 4.90964C11.5049 5.004 11.5584 5.13143 11.5584 5.26423C11.5584 5.39703 11.5049 5.52446 11.4095 5.61882C11.3125 5.7108 11.1827 5.76221 11.0476 5.76221C10.9126 5.76221 10.7828 5.7108 10.6857 5.61882L8.50796 3.47886V8.74789C8.50796 8.87988 8.45445 9.00646 8.35919 9.09979C8.26394 9.19313 8.13474 9.24556 8.00003 9.24556C7.86531 9.24556 7.73612 9.19313 7.64086 9.09979C7.5456 9.00646 7.49209 8.87988 7.49209 8.74789V3.47886L5.31431 5.61882C5.21801 5.71227 5.08795 5.7647 4.95241 5.7647C4.81687 5.7647 4.68681 5.71227 4.5905 5.61882ZM15.1111 9.24556V13.2269C15.1111 13.4909 15.0041 13.744 14.8136 13.9307C14.6231 14.1174 14.3647 14.2222 14.0953 14.2222H1.90479C1.63536 14.2222 1.37697 14.1174 1.18646 13.9307C0.995945 13.744 0.888916 13.4909 0.888916 13.2269V9.24556C0.888916 8.98158 0.995945 8.72841 1.18646 8.54175C1.37697 8.35509 1.63536 8.25023 1.90479 8.25023H6.22225C6.28961 8.25023 6.3542 8.27644 6.40183 8.32311C6.44946 8.36977 6.47622 8.43306 6.47622 8.49906V8.71679C6.47622 9.55038 7.17463 10.2596 8.03177 10.2409C8.43038 10.2328 8.80987 10.0719 9.08881 9.79275C9.36774 9.51364 9.52392 9.13853 9.52384 8.74789V8.49906C9.52384 8.43306 9.55059 8.36977 9.59822 8.32311C9.64585 8.27644 9.71045 8.25023 9.7778 8.25023H14.0953C14.3647 8.25023 14.6231 8.35509 14.8136 8.54175C15.0041 8.72841 15.1111 8.98158 15.1111 9.24556Z" fill="#CAD1D7"/>
</svg>
