<svg width="18" height="17" viewBox="0 0 18 17" fill="none" xmlns="http://www.w3.org/2000/svg">
<path fill-rule="evenodd" clip-rule="evenodd" d="M7.80138 1.19114L0.186311 14.3473C0.0644602 14.5578 0.00020158 14.7967 4.73778e-07 15.04C-0.000200692 15.2832 0.0636625 15.5222 0.185165 15.7329C0.306667 15.9436 0.481522 16.1186 0.692137 16.2403C0.902753 16.362 1.1417 16.426 1.38494 16.426H16.6151C16.8583 16.426 17.0972 16.362 17.3079 16.2403C17.5185 16.1186 17.6933 15.9436 17.8148 15.7329C17.9363 15.5222 18.0002 15.2832 18 15.04C17.9998 14.7967 17.9355 14.5578 17.8137 14.3473L10.1986 1.19114C10.077 0.980965 9.90218 0.806471 9.6918 0.685164C9.48142 0.563856 9.24285 0.5 9 0.5C8.75715 0.5 8.51857 0.563856 8.30819 0.685164C8.09782 0.806471 7.92303 0.980965 7.80138 1.19114ZM8.99913 6.12262C9.33605 6.12262 9.60918 6.39575 9.60918 6.73267V10.195C9.60918 10.5319 9.33605 10.805 8.99913 10.805C8.66221 10.805 8.38909 10.5319 8.38909 10.195V6.73267C8.38909 6.39575 8.66221 6.12262 8.99913 6.12262ZM10.0379 13.3111C10.0379 13.8848 9.57283 14.3498 8.99918 14.3498C8.42552 14.3498 7.96048 13.8848 7.96048 13.3111C7.96048 12.7375 8.42552 12.2724 8.99918 12.2724C9.57283 12.2724 10.0379 12.7375 10.0379 13.3111Z" fill="#F89033"/>
</svg>
